G04 #@! TF.GenerationSoftware,KiCad,Pcbnew,(6.0.9)*
G04 #@! TF.CreationDate,2023-05-28T18:49:52+02:00*
G04 #@! TF.ProjectId,SOIC-SSOP-DIP adapter,534f4943-2d53-4534-9f50-2d4449502061,rev?*
G04 #@! TF.SameCoordinates,Original*
G04 #@! TF.FileFunction,Legend,Bot*
G04 #@! TF.FilePolarity,Positive*
%FSLAX46Y46*%
G04 Gerber Fmt 4.6, Leading zero omitted, Abs format (unit mm)*
G04 Created by KiCad (PCBNEW (6.0.9)) date 2023-05-28 18:49:52*
%MOMM*%
%LPD*%
G01*
G04 APERTURE LIST*
G04 Aperture macros list*
%AMFreePoly0*
4,1,22,0.500000,-0.750000,0.000000,-0.750000,0.000000,-0.745033,-0.079941,-0.743568,-0.215256,-0.701293,-0.333266,-0.622738,-0.424486,-0.514219,-0.481581,-0.384460,-0.499164,-0.250000,-0.500000,-0.250000,-0.500000,0.250000,-0.499164,0.250000,-0.499963,0.256109,-0.478152,0.396186,-0.417904,0.524511,-0.324060,0.630769,-0.204165,0.706417,-0.067858,0.745374,0.000000,0.744959,0.000000,0.750000,
0.500000,0.750000,0.500000,-0.750000,0.500000,-0.750000,$1*%
%AMFreePoly1*
4,1,20,0.000000,0.744959,0.073905,0.744508,0.209726,0.703889,0.328688,0.626782,0.421226,0.519385,0.479903,0.390333,0.500000,0.250000,0.500000,-0.250000,0.499851,-0.262216,0.476331,-0.402017,0.414519,-0.529596,0.319384,-0.634700,0.198574,-0.708877,0.061801,-0.746166,0.000000,-0.745033,0.000000,-0.750000,-0.500000,-0.750000,-0.500000,0.750000,0.000000,0.750000,0.000000,0.744959,
0.000000,0.744959,$1*%
G04 Aperture macros list end*
%ADD10C,0.150000*%
%ADD11C,0.120000*%
%ADD12FreePoly0,180.000000*%
%ADD13FreePoly1,180.000000*%
%ADD14R,1.700000X1.700000*%
%ADD15O,1.700000X1.700000*%
G04 APERTURE END LIST*
D10*
X67849714Y-83367619D02*
X67802095Y-83320000D01*
X67706857Y-83272380D01*
X67468761Y-83272380D01*
X67373523Y-83320000D01*
X67325904Y-83367619D01*
X67278285Y-83462857D01*
X67278285Y-83558095D01*
X67325904Y-83700952D01*
X67897333Y-84272380D01*
X67278285Y-84272380D01*
X71453333Y-95972380D02*
X70786666Y-95972380D01*
X71215238Y-96972380D01*
X74358476Y-81732380D02*
X74929904Y-81732380D01*
X74644190Y-81732380D02*
X74644190Y-80732380D01*
X74739428Y-80875238D01*
X74834666Y-80970476D01*
X74929904Y-81018095D01*
X73501333Y-81065714D02*
X73501333Y-81732380D01*
X73739428Y-80684761D02*
X73977523Y-81399047D01*
X73358476Y-81399047D01*
X74104476Y-89352380D02*
X74675904Y-89352380D01*
X74390190Y-89352380D02*
X74390190Y-88352380D01*
X74485428Y-88495238D01*
X74580666Y-88590476D01*
X74675904Y-88638095D01*
X73152095Y-89352380D02*
X73723523Y-89352380D01*
X73437809Y-89352380D02*
X73437809Y-88352380D01*
X73533047Y-88495238D01*
X73628285Y-88590476D01*
X73723523Y-88638095D01*
X74009238Y-96400952D02*
X74104476Y-96353333D01*
X74152095Y-96305714D01*
X74199714Y-96210476D01*
X74199714Y-96162857D01*
X74152095Y-96067619D01*
X74104476Y-96020000D01*
X74009238Y-95972380D01*
X73818761Y-95972380D01*
X73723523Y-96020000D01*
X73675904Y-96067619D01*
X73628285Y-96162857D01*
X73628285Y-96210476D01*
X73675904Y-96305714D01*
X73723523Y-96353333D01*
X73818761Y-96400952D01*
X74009238Y-96400952D01*
X74104476Y-96448571D01*
X74152095Y-96496190D01*
X74199714Y-96591428D01*
X74199714Y-96781904D01*
X74152095Y-96877142D01*
X74104476Y-96924761D01*
X74009238Y-96972380D01*
X73818761Y-96972380D01*
X73723523Y-96924761D01*
X73675904Y-96877142D01*
X73628285Y-96781904D01*
X73628285Y-96591428D01*
X73675904Y-96496190D01*
X73723523Y-96448571D01*
X73818761Y-96400952D01*
X74104476Y-91892380D02*
X74675904Y-91892380D01*
X74390190Y-91892380D02*
X74390190Y-90892380D01*
X74485428Y-91035238D01*
X74580666Y-91130476D01*
X74675904Y-91178095D01*
X73485428Y-90892380D02*
X73390190Y-90892380D01*
X73294952Y-90940000D01*
X73247333Y-90987619D01*
X73199714Y-91082857D01*
X73152095Y-91273333D01*
X73152095Y-91511428D01*
X73199714Y-91701904D01*
X73247333Y-91797142D01*
X73294952Y-91844761D01*
X73390190Y-91892380D01*
X73485428Y-91892380D01*
X73580666Y-91844761D01*
X73628285Y-91797142D01*
X73675904Y-91701904D01*
X73723523Y-91511428D01*
X73723523Y-91273333D01*
X73675904Y-91082857D01*
X73628285Y-90987619D01*
X73580666Y-90940000D01*
X73485428Y-90892380D01*
X74104476Y-94432380D02*
X73914000Y-94432380D01*
X73818761Y-94384761D01*
X73771142Y-94337142D01*
X73675904Y-94194285D01*
X73628285Y-94003809D01*
X73628285Y-93622857D01*
X73675904Y-93527619D01*
X73723523Y-93480000D01*
X73818761Y-93432380D01*
X74009238Y-93432380D01*
X74104476Y-93480000D01*
X74152095Y-93527619D01*
X74199714Y-93622857D01*
X74199714Y-93860952D01*
X74152095Y-93956190D01*
X74104476Y-94003809D01*
X74009238Y-94051428D01*
X73818761Y-94051428D01*
X73723523Y-94003809D01*
X73675904Y-93956190D01*
X73628285Y-93860952D01*
X74358476Y-84272380D02*
X74929904Y-84272380D01*
X74644190Y-84272380D02*
X74644190Y-83272380D01*
X74739428Y-83415238D01*
X74834666Y-83510476D01*
X74929904Y-83558095D01*
X74025142Y-83272380D02*
X73406095Y-83272380D01*
X73739428Y-83653333D01*
X73596571Y-83653333D01*
X73501333Y-83700952D01*
X73453714Y-83748571D01*
X73406095Y-83843809D01*
X73406095Y-84081904D01*
X73453714Y-84177142D01*
X73501333Y-84224761D01*
X73596571Y-84272380D01*
X73882285Y-84272380D01*
X73977523Y-84224761D01*
X74025142Y-84177142D01*
X74104476Y-86812380D02*
X74675904Y-86812380D01*
X74390190Y-86812380D02*
X74390190Y-85812380D01*
X74485428Y-85955238D01*
X74580666Y-86050476D01*
X74675904Y-86098095D01*
X73723523Y-85907619D02*
X73675904Y-85860000D01*
X73580666Y-85812380D01*
X73342571Y-85812380D01*
X73247333Y-85860000D01*
X73199714Y-85907619D01*
X73152095Y-86002857D01*
X73152095Y-86098095D01*
X73199714Y-86240952D01*
X73771142Y-86812380D01*
X73152095Y-86812380D01*
X68151333Y-85812380D02*
X67532285Y-85812380D01*
X67865619Y-86193333D01*
X67722761Y-86193333D01*
X67627523Y-86240952D01*
X67579904Y-86288571D01*
X67532285Y-86383809D01*
X67532285Y-86621904D01*
X67579904Y-86717142D01*
X67627523Y-86764761D01*
X67722761Y-86812380D01*
X68008476Y-86812380D01*
X68103714Y-86764761D01*
X68151333Y-86717142D01*
X67373523Y-93432380D02*
X67564000Y-93432380D01*
X67659238Y-93480000D01*
X67706857Y-93527619D01*
X67802095Y-93670476D01*
X67849714Y-93860952D01*
X67849714Y-94241904D01*
X67802095Y-94337142D01*
X67754476Y-94384761D01*
X67659238Y-94432380D01*
X67468761Y-94432380D01*
X67373523Y-94384761D01*
X67325904Y-94337142D01*
X67278285Y-94241904D01*
X67278285Y-94003809D01*
X67325904Y-93908571D01*
X67373523Y-93860952D01*
X67468761Y-93813333D01*
X67659238Y-93813333D01*
X67754476Y-93860952D01*
X67802095Y-93908571D01*
X67849714Y-94003809D01*
X67532285Y-81732380D02*
X68103714Y-81732380D01*
X67818000Y-81732380D02*
X67818000Y-80732380D01*
X67913238Y-80875238D01*
X68008476Y-80970476D01*
X68103714Y-81018095D01*
X67627523Y-88685714D02*
X67627523Y-89352380D01*
X67865619Y-88304761D02*
X68103714Y-89019047D01*
X67484666Y-89019047D01*
X67325904Y-90892380D02*
X67802095Y-90892380D01*
X67849714Y-91368571D01*
X67802095Y-91320952D01*
X67706857Y-91273333D01*
X67468761Y-91273333D01*
X67373523Y-91320952D01*
X67325904Y-91368571D01*
X67278285Y-91463809D01*
X67278285Y-91701904D01*
X67325904Y-91797142D01*
X67373523Y-91844761D01*
X67468761Y-91892380D01*
X67706857Y-91892380D01*
X67802095Y-91844761D01*
X67849714Y-91797142D01*
D11*
X68388000Y-97520000D02*
X69788000Y-97520000D01*
X67688000Y-96220000D02*
X67688000Y-96820000D01*
X70488000Y-96820000D02*
X70488000Y-96220000D01*
X69788000Y-95520000D02*
X68388000Y-95520000D01*
X69788000Y-97520000D02*
G75*
G03*
X70488000Y-96820000I1J699999D01*
G01*
X70488000Y-96220000D02*
G75*
G03*
X69788000Y-95520000I-699999J1D01*
G01*
X68388000Y-95520000D02*
G75*
G03*
X67688000Y-96220000I0J-700000D01*
G01*
X67688000Y-96820000D02*
G75*
G03*
X68388000Y-97520000I700000J0D01*
G01*
%LPC*%
D12*
X69738000Y-96520000D03*
D13*
X68438000Y-96520000D03*
D14*
X66040000Y-81275000D03*
D15*
X66040000Y-83815000D03*
X66040000Y-86355000D03*
X66040000Y-88895000D03*
X66040000Y-91435000D03*
X66040000Y-93975000D03*
X66040000Y-96515000D03*
D14*
X76200000Y-96525000D03*
D15*
X76200000Y-93985000D03*
X76200000Y-91445000D03*
X76200000Y-88905000D03*
X76200000Y-86365000D03*
X76200000Y-83825000D03*
X76200000Y-81285000D03*
M02*
