G04 #@! TF.GenerationSoftware,KiCad,Pcbnew,(6.0.9)*
G04 #@! TF.CreationDate,2023-05-28T18:49:52+02:00*
G04 #@! TF.ProjectId,SOIC-SSOP-DIP adapter,534f4943-2d53-4534-9f50-2d4449502061,rev?*
G04 #@! TF.SameCoordinates,Original*
G04 #@! TF.FileFunction,Legend,Top*
G04 #@! TF.FilePolarity,Positive*
%FSLAX46Y46*%
G04 Gerber Fmt 4.6, Leading zero omitted, Abs format (unit mm)*
G04 Created by KiCad (PCBNEW (6.0.9)) date 2023-05-28 18:49:52*
%MOMM*%
%LPD*%
G01*
G04 APERTURE LIST*
G04 Aperture macros list*
%AMRoundRect*
0 Rectangle with rounded corners*
0 $1 Rounding radius*
0 $2 $3 $4 $5 $6 $7 $8 $9 X,Y pos of 4 corners*
0 Add a 4 corners polygon primitive as box body*
4,1,4,$2,$3,$4,$5,$6,$7,$8,$9,$2,$3,0*
0 Add four circle primitives for the rounded corners*
1,1,$1+$1,$2,$3*
1,1,$1+$1,$4,$5*
1,1,$1+$1,$6,$7*
1,1,$1+$1,$8,$9*
0 Add four rect primitives between the rounded corners*
20,1,$1+$1,$2,$3,$4,$5,0*
20,1,$1+$1,$4,$5,$6,$7,0*
20,1,$1+$1,$6,$7,$8,$9,0*
20,1,$1+$1,$8,$9,$2,$3,0*%
G04 Aperture macros list end*
%ADD10C,0.150000*%
%ADD11C,0.329000*%
%ADD12C,0.120000*%
%ADD13RoundRect,0.250000X-0.412500X-0.650000X0.412500X-0.650000X0.412500X0.650000X-0.412500X0.650000X0*%
%ADD14R,1.700000X1.700000*%
%ADD15O,1.700000X1.700000*%
%ADD16RoundRect,0.150000X-0.825000X-0.150000X0.825000X-0.150000X0.825000X0.150000X-0.825000X0.150000X0*%
G04 APERTURE END LIST*
D10*
X68936666Y-94679761D02*
X69036666Y-94727380D01*
X69203333Y-94727380D01*
X69270000Y-94679761D01*
X69303333Y-94632142D01*
X69336666Y-94536904D01*
X69336666Y-94441666D01*
X69303333Y-94346428D01*
X69270000Y-94298809D01*
X69203333Y-94251190D01*
X69070000Y-94203571D01*
X69003333Y-94155952D01*
X68970000Y-94108333D01*
X68936666Y-94013095D01*
X68936666Y-93917857D01*
X68970000Y-93822619D01*
X69003333Y-93775000D01*
X69070000Y-93727380D01*
X69236666Y-93727380D01*
X69336666Y-93775000D01*
X69770000Y-93727380D02*
X69903333Y-93727380D01*
X69970000Y-93775000D01*
X70036666Y-93870238D01*
X70070000Y-94060714D01*
X70070000Y-94394047D01*
X70036666Y-94584523D01*
X69970000Y-94679761D01*
X69903333Y-94727380D01*
X69770000Y-94727380D01*
X69703333Y-94679761D01*
X69636666Y-94584523D01*
X69603333Y-94394047D01*
X69603333Y-94060714D01*
X69636666Y-93870238D01*
X69703333Y-93775000D01*
X69770000Y-93727380D01*
X70370000Y-94727380D02*
X70370000Y-93727380D01*
X71103333Y-94632142D02*
X71070000Y-94679761D01*
X70970000Y-94727380D01*
X70903333Y-94727380D01*
X70803333Y-94679761D01*
X70736666Y-94584523D01*
X70703333Y-94489285D01*
X70670000Y-94298809D01*
X70670000Y-94155952D01*
X70703333Y-93965476D01*
X70736666Y-93870238D01*
X70803333Y-93775000D01*
X70903333Y-93727380D01*
X70970000Y-93727380D01*
X71070000Y-93775000D01*
X71103333Y-93822619D01*
X71403333Y-94346428D02*
X71936666Y-94346428D01*
X72636666Y-94727380D02*
X72236666Y-94727380D01*
X72436666Y-94727380D02*
X72436666Y-93727380D01*
X72370000Y-93870238D01*
X72303333Y-93965476D01*
X72236666Y-94013095D01*
X73236666Y-94060714D02*
X73236666Y-94727380D01*
X73070000Y-93679761D02*
X72903333Y-94394047D01*
X73336666Y-94394047D01*
X68336666Y-95337380D02*
X68770000Y-95337380D01*
X68536666Y-95718333D01*
X68636666Y-95718333D01*
X68703333Y-95765952D01*
X68736666Y-95813571D01*
X68770000Y-95908809D01*
X68770000Y-96146904D01*
X68736666Y-96242142D01*
X68703333Y-96289761D01*
X68636666Y-96337380D01*
X68436666Y-96337380D01*
X68370000Y-96289761D01*
X68336666Y-96242142D01*
X69070000Y-96242142D02*
X69103333Y-96289761D01*
X69070000Y-96337380D01*
X69036666Y-96289761D01*
X69070000Y-96242142D01*
X69070000Y-96337380D01*
X69436666Y-96337380D02*
X69570000Y-96337380D01*
X69636666Y-96289761D01*
X69670000Y-96242142D01*
X69736666Y-96099285D01*
X69770000Y-95908809D01*
X69770000Y-95527857D01*
X69736666Y-95432619D01*
X69703333Y-95385000D01*
X69636666Y-95337380D01*
X69503333Y-95337380D01*
X69436666Y-95385000D01*
X69403333Y-95432619D01*
X69370000Y-95527857D01*
X69370000Y-95765952D01*
X69403333Y-95861190D01*
X69436666Y-95908809D01*
X69503333Y-95956428D01*
X69636666Y-95956428D01*
X69703333Y-95908809D01*
X69736666Y-95861190D01*
X69770000Y-95765952D01*
X70003333Y-96337380D02*
X70370000Y-95670714D01*
X70003333Y-95670714D02*
X70370000Y-96337380D01*
X70736666Y-95765952D02*
X70670000Y-95718333D01*
X70636666Y-95670714D01*
X70603333Y-95575476D01*
X70603333Y-95527857D01*
X70636666Y-95432619D01*
X70670000Y-95385000D01*
X70736666Y-95337380D01*
X70870000Y-95337380D01*
X70936666Y-95385000D01*
X70970000Y-95432619D01*
X71003333Y-95527857D01*
X71003333Y-95575476D01*
X70970000Y-95670714D01*
X70936666Y-95718333D01*
X70870000Y-95765952D01*
X70736666Y-95765952D01*
X70670000Y-95813571D01*
X70636666Y-95861190D01*
X70603333Y-95956428D01*
X70603333Y-96146904D01*
X70636666Y-96242142D01*
X70670000Y-96289761D01*
X70736666Y-96337380D01*
X70870000Y-96337380D01*
X70936666Y-96289761D01*
X70970000Y-96242142D01*
X71003333Y-96146904D01*
X71003333Y-95956428D01*
X70970000Y-95861190D01*
X70936666Y-95813571D01*
X70870000Y-95765952D01*
X71303333Y-96242142D02*
X71336666Y-96289761D01*
X71303333Y-96337380D01*
X71270000Y-96289761D01*
X71303333Y-96242142D01*
X71303333Y-96337380D01*
X71570000Y-95337380D02*
X72036666Y-95337380D01*
X71736666Y-96337380D01*
X72303333Y-96337380D02*
X72303333Y-95670714D01*
X72303333Y-95765952D02*
X72336666Y-95718333D01*
X72403333Y-95670714D01*
X72503333Y-95670714D01*
X72570000Y-95718333D01*
X72603333Y-95813571D01*
X72603333Y-96337380D01*
X72603333Y-95813571D02*
X72636666Y-95718333D01*
X72703333Y-95670714D01*
X72803333Y-95670714D01*
X72870000Y-95718333D01*
X72903333Y-95813571D01*
X72903333Y-96337380D01*
X73236666Y-96337380D02*
X73236666Y-95670714D01*
X73236666Y-95765952D02*
X73270000Y-95718333D01*
X73336666Y-95670714D01*
X73436666Y-95670714D01*
X73503333Y-95718333D01*
X73536666Y-95813571D01*
X73536666Y-96337380D01*
X73536666Y-95813571D02*
X73570000Y-95718333D01*
X73636666Y-95670714D01*
X73736666Y-95670714D01*
X73803333Y-95718333D01*
X73836666Y-95813571D01*
X73836666Y-96337380D01*
X68836666Y-97947380D02*
X68836666Y-96947380D01*
X69103333Y-96947380D01*
X69170000Y-96995000D01*
X69203333Y-97042619D01*
X69236666Y-97137857D01*
X69236666Y-97280714D01*
X69203333Y-97375952D01*
X69170000Y-97423571D01*
X69103333Y-97471190D01*
X68836666Y-97471190D01*
X69903333Y-97947380D02*
X69503333Y-97947380D01*
X69703333Y-97947380D02*
X69703333Y-96947380D01*
X69636666Y-97090238D01*
X69570000Y-97185476D01*
X69503333Y-97233095D01*
X70203333Y-97852142D02*
X70236666Y-97899761D01*
X70203333Y-97947380D01*
X70170000Y-97899761D01*
X70203333Y-97852142D01*
X70203333Y-97947380D01*
X70503333Y-97042619D02*
X70536666Y-96995000D01*
X70603333Y-96947380D01*
X70770000Y-96947380D01*
X70836666Y-96995000D01*
X70870000Y-97042619D01*
X70903333Y-97137857D01*
X70903333Y-97233095D01*
X70870000Y-97375952D01*
X70470000Y-97947380D01*
X70903333Y-97947380D01*
X71136666Y-96947380D02*
X71603333Y-96947380D01*
X71303333Y-97947380D01*
X71870000Y-97947380D02*
X71870000Y-97280714D01*
X71870000Y-97375952D02*
X71903333Y-97328333D01*
X71970000Y-97280714D01*
X72070000Y-97280714D01*
X72136666Y-97328333D01*
X72170000Y-97423571D01*
X72170000Y-97947380D01*
X72170000Y-97423571D02*
X72203333Y-97328333D01*
X72270000Y-97280714D01*
X72370000Y-97280714D01*
X72436666Y-97328333D01*
X72470000Y-97423571D01*
X72470000Y-97947380D01*
X72803333Y-97947380D02*
X72803333Y-97280714D01*
X72803333Y-97375952D02*
X72836666Y-97328333D01*
X72903333Y-97280714D01*
X73003333Y-97280714D01*
X73070000Y-97328333D01*
X73103333Y-97423571D01*
X73103333Y-97947380D01*
X73103333Y-97423571D02*
X73136666Y-97328333D01*
X73203333Y-97280714D01*
X73303333Y-97280714D01*
X73370000Y-97328333D01*
X73403333Y-97423571D01*
X73403333Y-97947380D01*
D11*
X67728500Y-81280000D02*
G75*
G03*
X67728500Y-81280000I-164500J0D01*
G01*
D12*
X70408748Y-83968000D02*
X71831252Y-83968000D01*
X70408748Y-82148000D02*
X71831252Y-82148000D01*
X64710000Y-97845000D02*
X67370000Y-97845000D01*
X64710000Y-82545000D02*
X64710000Y-97845000D01*
X67370000Y-82545000D02*
X67370000Y-97845000D01*
X64710000Y-81275000D02*
X64710000Y-79945000D01*
X64710000Y-79945000D02*
X66040000Y-79945000D01*
X64710000Y-82545000D02*
X67370000Y-82545000D01*
X71120000Y-84465000D02*
X73070000Y-84465000D01*
X71120000Y-93335000D02*
X73070000Y-93335000D01*
X71120000Y-93335000D02*
X69170000Y-93335000D01*
X71120000Y-84465000D02*
X67670000Y-84465000D01*
X77530000Y-95255000D02*
X74870000Y-95255000D01*
X74870000Y-95255000D02*
X74870000Y-79955000D01*
X77530000Y-95255000D02*
X77530000Y-79955000D01*
X77530000Y-79955000D02*
X74870000Y-79955000D01*
X77530000Y-97855000D02*
X76200000Y-97855000D01*
X77530000Y-96525000D02*
X77530000Y-97855000D01*
%LPC*%
D13*
X69557500Y-83058000D03*
X72682500Y-83058000D03*
D14*
X66040000Y-81275000D03*
D15*
X66040000Y-83815000D03*
X66040000Y-86355000D03*
X66040000Y-88895000D03*
X66040000Y-91435000D03*
X66040000Y-93975000D03*
X66040000Y-96515000D03*
D16*
X68645000Y-85090000D03*
X68645000Y-86360000D03*
X68645000Y-87630000D03*
X68645000Y-88900000D03*
X68645000Y-90170000D03*
X68645000Y-91440000D03*
X68645000Y-92710000D03*
X73595000Y-92710000D03*
X73595000Y-91440000D03*
X73595000Y-90170000D03*
X73595000Y-88900000D03*
X73595000Y-87630000D03*
X73595000Y-86360000D03*
X73595000Y-85090000D03*
D14*
X76200000Y-96525000D03*
D15*
X76200000Y-93985000D03*
X76200000Y-91445000D03*
X76200000Y-88905000D03*
X76200000Y-86365000D03*
X76200000Y-83825000D03*
X76200000Y-81285000D03*
M02*
