G04 #@! TF.GenerationSoftware,KiCad,Pcbnew,(6.0.9)*
G04 #@! TF.CreationDate,2023-05-28T18:49:52+02:00*
G04 #@! TF.ProjectId,SOIC-SSOP-DIP adapter,534f4943-2d53-4534-9f50-2d4449502061,rev?*
G04 #@! TF.SameCoordinates,Original*
G04 #@! TF.FileFunction,Copper,L1,Top*
G04 #@! TF.FilePolarity,Positive*
%FSLAX46Y46*%
G04 Gerber Fmt 4.6, Leading zero omitted, Abs format (unit mm)*
G04 Created by KiCad (PCBNEW (6.0.9)) date 2023-05-28 18:49:52*
%MOMM*%
%LPD*%
G01*
G04 APERTURE LIST*
G04 Aperture macros list*
%AMRoundRect*
0 Rectangle with rounded corners*
0 $1 Rounding radius*
0 $2 $3 $4 $5 $6 $7 $8 $9 X,Y pos of 4 corners*
0 Add a 4 corners polygon primitive as box body*
4,1,4,$2,$3,$4,$5,$6,$7,$8,$9,$2,$3,0*
0 Add four circle primitives for the rounded corners*
1,1,$1+$1,$2,$3*
1,1,$1+$1,$4,$5*
1,1,$1+$1,$6,$7*
1,1,$1+$1,$8,$9*
0 Add four rect primitives between the rounded corners*
20,1,$1+$1,$2,$3,$4,$5,0*
20,1,$1+$1,$4,$5,$6,$7,0*
20,1,$1+$1,$6,$7,$8,$9,0*
20,1,$1+$1,$8,$9,$2,$3,0*%
G04 Aperture macros list end*
G04 #@! TA.AperFunction,SMDPad,CuDef*
%ADD10RoundRect,0.250000X-0.412500X-0.650000X0.412500X-0.650000X0.412500X0.650000X-0.412500X0.650000X0*%
G04 #@! TD*
G04 #@! TA.AperFunction,ComponentPad*
%ADD11R,1.700000X1.700000*%
G04 #@! TD*
G04 #@! TA.AperFunction,ComponentPad*
%ADD12O,1.700000X1.700000*%
G04 #@! TD*
G04 #@! TA.AperFunction,SMDPad,CuDef*
%ADD13RoundRect,0.150000X-0.825000X-0.150000X0.825000X-0.150000X0.825000X0.150000X-0.825000X0.150000X0*%
G04 #@! TD*
G04 #@! TA.AperFunction,ViaPad*
%ADD14C,0.900000*%
G04 #@! TD*
G04 #@! TA.AperFunction,Conductor*
%ADD15C,0.500000*%
G04 #@! TD*
G04 #@! TA.AperFunction,Conductor*
%ADD16C,0.250000*%
G04 #@! TD*
G04 APERTURE END LIST*
D10*
X69557500Y-83058000D03*
X72682500Y-83058000D03*
D11*
X66040000Y-81275000D03*
D12*
X66040000Y-83815000D03*
X66040000Y-86355000D03*
X66040000Y-88895000D03*
X66040000Y-91435000D03*
X66040000Y-93975000D03*
X66040000Y-96515000D03*
D13*
X68645000Y-85090000D03*
X68645000Y-86360000D03*
X68645000Y-87630000D03*
X68645000Y-88900000D03*
X68645000Y-90170000D03*
X68645000Y-91440000D03*
X68645000Y-92710000D03*
X73595000Y-92710000D03*
X73595000Y-91440000D03*
X73595000Y-90170000D03*
X73595000Y-88900000D03*
X73595000Y-87630000D03*
X73595000Y-86360000D03*
X73595000Y-85090000D03*
D11*
X76200000Y-96525000D03*
D12*
X76200000Y-93985000D03*
X76200000Y-91445000D03*
X76200000Y-88905000D03*
X76200000Y-86365000D03*
X76200000Y-83825000D03*
X76200000Y-81285000D03*
D14*
X68326000Y-83566000D03*
X68326000Y-82550000D03*
D15*
X68326000Y-82550000D02*
X69049500Y-82550000D01*
X69049500Y-82550000D02*
X69557500Y-83058000D01*
X69049500Y-83566000D02*
X69557500Y-83058000D01*
D16*
X67315000Y-87630000D02*
X68645000Y-87630000D01*
X76200000Y-93668249D02*
X76200000Y-93985000D01*
X68640000Y-88895000D02*
X68645000Y-88900000D01*
X67305000Y-90170000D02*
X68645000Y-90170000D01*
X68645000Y-91440000D02*
X68268249Y-91440000D01*
X66040000Y-91435000D02*
X67305000Y-90170000D01*
D15*
X73406000Y-82804000D02*
X73406000Y-84901000D01*
D16*
X73600000Y-88905000D02*
X76200000Y-88905000D01*
X66040000Y-81275000D02*
X67310000Y-82545000D01*
X73595000Y-87630000D02*
X74935000Y-87630000D01*
X73595000Y-91440000D02*
X73971751Y-91440000D01*
D15*
X74031000Y-81285000D02*
X76200000Y-81285000D01*
D16*
X66040000Y-88895000D02*
X68640000Y-88895000D01*
X76200000Y-84131751D02*
X76200000Y-83825000D01*
D15*
X68326000Y-83566000D02*
X69049500Y-83566000D01*
D16*
X74925000Y-90170000D02*
X76200000Y-91445000D01*
D15*
X73406000Y-84901000D02*
X73595000Y-85090000D01*
D16*
X68268249Y-91440000D02*
X66040000Y-93668249D01*
X68645000Y-93910000D02*
X66040000Y-96515000D01*
X73595000Y-88900000D02*
X73600000Y-88905000D01*
X68268249Y-86360000D02*
X66040000Y-84131751D01*
X74935000Y-87630000D02*
X76200000Y-86365000D01*
X67310000Y-83755000D02*
X68645000Y-85090000D01*
X68645000Y-86360000D02*
X68268249Y-86360000D01*
D15*
X73406000Y-83058000D02*
X73406000Y-81910000D01*
D16*
X73595000Y-86360000D02*
X73971751Y-86360000D01*
X66040000Y-93668249D02*
X66040000Y-93975000D01*
X66040000Y-84131751D02*
X66040000Y-83815000D01*
X68645000Y-92710000D02*
X68645000Y-93910000D01*
X73595000Y-92710000D02*
X73595000Y-93920000D01*
X67310000Y-82545000D02*
X67310000Y-83755000D01*
X73595000Y-93920000D02*
X76200000Y-96525000D01*
X66040000Y-86355000D02*
X67315000Y-87630000D01*
D15*
X72682500Y-83058000D02*
X73406000Y-83058000D01*
D16*
X73971751Y-86360000D02*
X76200000Y-84131751D01*
X73595000Y-90170000D02*
X74925000Y-90170000D01*
X73971751Y-91440000D02*
X76200000Y-93668249D01*
D15*
X73406000Y-81910000D02*
X74031000Y-81285000D01*
M02*
