G04 #@! TF.GenerationSoftware,KiCad,Pcbnew,(6.0.9)*
G04 #@! TF.CreationDate,2023-05-28T18:51:30+02:00*
G04 #@! TF.ProjectId,SOIC-SSOP-DIP adapter,534f4943-2d53-4534-9f50-2d4449502061,rev?*
G04 #@! TF.SameCoordinates,Original*
G04 #@! TF.FileFunction,Legend,Top*
G04 #@! TF.FilePolarity,Positive*
%FSLAX46Y46*%
G04 Gerber Fmt 4.6, Leading zero omitted, Abs format (unit mm)*
G04 Created by KiCad (PCBNEW (6.0.9)) date 2023-05-28 18:51:30*
%MOMM*%
%LPD*%
G01*
G04 APERTURE LIST*
G04 Aperture macros list*
%AMRoundRect*
0 Rectangle with rounded corners*
0 $1 Rounding radius*
0 $2 $3 $4 $5 $6 $7 $8 $9 X,Y pos of 4 corners*
0 Add a 4 corners polygon primitive as box body*
4,1,4,$2,$3,$4,$5,$6,$7,$8,$9,$2,$3,0*
0 Add four circle primitives for the rounded corners*
1,1,$1+$1,$2,$3*
1,1,$1+$1,$4,$5*
1,1,$1+$1,$6,$7*
1,1,$1+$1,$8,$9*
0 Add four rect primitives between the rounded corners*
20,1,$1+$1,$2,$3,$4,$5,0*
20,1,$1+$1,$4,$5,$6,$7,0*
20,1,$1+$1,$6,$7,$8,$9,0*
20,1,$1+$1,$8,$9,$2,$3,0*%
%AMRotRect*
0 Rectangle, with rotation*
0 The origin of the aperture is its center*
0 $1 length*
0 $2 width*
0 $3 Rotation angle, in degrees counterclockwise*
0 Add horizontal line*
21,1,$1,$2,0,0,$3*%
G04 Aperture macros list end*
%ADD10C,0.150000*%
%ADD11C,0.329000*%
%ADD12C,0.120000*%
%ADD13R,1.700000X1.700000*%
%ADD14O,1.700000X1.700000*%
%ADD15RoundRect,0.116150X-0.413092X0.248831X0.248831X-0.413092X0.413092X-0.248831X-0.248831X0.413092X0*%
%ADD16RoundRect,0.087000X-0.413092X0.290055X0.290055X-0.413092X0.413092X-0.290055X-0.290055X0.413092X0*%
%ADD17RoundRect,0.116150X-0.413092X-0.248831X-0.248831X-0.413092X0.413092X0.248831X0.248831X0.413092X0*%
%ADD18RoundRect,0.087000X-0.413092X-0.290055X-0.290055X-0.413092X0.413092X0.290055X0.290055X0.413092X0*%
%ADD19RotRect,1.930400X1.930400X315.000000*%
G04 APERTURE END LIST*
D10*
X68350000Y-124370619D02*
X68283333Y-124323000D01*
X68216666Y-124227761D01*
X68116666Y-124084904D01*
X68050000Y-124037285D01*
X67983333Y-124037285D01*
X68016666Y-124275380D02*
X67950000Y-124227761D01*
X67883333Y-124132523D01*
X67850000Y-123942047D01*
X67850000Y-123608714D01*
X67883333Y-123418238D01*
X67950000Y-123323000D01*
X68016666Y-123275380D01*
X68150000Y-123275380D01*
X68216666Y-123323000D01*
X68283333Y-123418238D01*
X68316666Y-123608714D01*
X68316666Y-123942047D01*
X68283333Y-124132523D01*
X68216666Y-124227761D01*
X68150000Y-124275380D01*
X68016666Y-124275380D01*
X68850000Y-123751571D02*
X68616666Y-123751571D01*
X68616666Y-124275380D02*
X68616666Y-123275380D01*
X68950000Y-123275380D01*
X69216666Y-124275380D02*
X69216666Y-123275380D01*
X69616666Y-124275380D01*
X69616666Y-123275380D01*
X69950000Y-123894428D02*
X70483333Y-123894428D01*
X71183333Y-124275380D02*
X70783333Y-124275380D01*
X70983333Y-124275380D02*
X70983333Y-123275380D01*
X70916666Y-123418238D01*
X70850000Y-123513476D01*
X70783333Y-123561095D01*
X71783333Y-123275380D02*
X71650000Y-123275380D01*
X71583333Y-123323000D01*
X71550000Y-123370619D01*
X71483333Y-123513476D01*
X71450000Y-123703952D01*
X71450000Y-124084904D01*
X71483333Y-124180142D01*
X71516666Y-124227761D01*
X71583333Y-124275380D01*
X71716666Y-124275380D01*
X71783333Y-124227761D01*
X71816666Y-124180142D01*
X71850000Y-124084904D01*
X71850000Y-123846809D01*
X71816666Y-123751571D01*
X71783333Y-123703952D01*
X71716666Y-123656333D01*
X71583333Y-123656333D01*
X71516666Y-123703952D01*
X71483333Y-123751571D01*
X71450000Y-123846809D01*
X69666666Y-125885380D02*
X69666666Y-124885380D01*
X69933333Y-124885380D01*
X70000000Y-124933000D01*
X70033333Y-124980619D01*
X70066666Y-125075857D01*
X70066666Y-125218714D01*
X70033333Y-125313952D01*
X70000000Y-125361571D01*
X69933333Y-125409190D01*
X69666666Y-125409190D01*
X68383333Y-126495380D02*
X68450000Y-126495380D01*
X68516666Y-126543000D01*
X68550000Y-126590619D01*
X68583333Y-126685857D01*
X68616666Y-126876333D01*
X68616666Y-127114428D01*
X68583333Y-127304904D01*
X68550000Y-127400142D01*
X68516666Y-127447761D01*
X68450000Y-127495380D01*
X68383333Y-127495380D01*
X68316666Y-127447761D01*
X68283333Y-127400142D01*
X68250000Y-127304904D01*
X68216666Y-127114428D01*
X68216666Y-126876333D01*
X68250000Y-126685857D01*
X68283333Y-126590619D01*
X68316666Y-126543000D01*
X68383333Y-126495380D01*
X68916666Y-127400142D02*
X68950000Y-127447761D01*
X68916666Y-127495380D01*
X68883333Y-127447761D01*
X68916666Y-127400142D01*
X68916666Y-127495380D01*
X69583333Y-126495380D02*
X69250000Y-126495380D01*
X69216666Y-126971571D01*
X69250000Y-126923952D01*
X69316666Y-126876333D01*
X69483333Y-126876333D01*
X69550000Y-126923952D01*
X69583333Y-126971571D01*
X69616666Y-127066809D01*
X69616666Y-127304904D01*
X69583333Y-127400142D01*
X69550000Y-127447761D01*
X69483333Y-127495380D01*
X69316666Y-127495380D01*
X69250000Y-127447761D01*
X69216666Y-127400142D01*
X69916666Y-127495380D02*
X69916666Y-126828714D01*
X69916666Y-126923952D02*
X69950000Y-126876333D01*
X70016666Y-126828714D01*
X70116666Y-126828714D01*
X70183333Y-126876333D01*
X70216666Y-126971571D01*
X70216666Y-127495380D01*
X70216666Y-126971571D02*
X70250000Y-126876333D01*
X70316666Y-126828714D01*
X70416666Y-126828714D01*
X70483333Y-126876333D01*
X70516666Y-126971571D01*
X70516666Y-127495380D01*
X70850000Y-127495380D02*
X70850000Y-126828714D01*
X70850000Y-126923952D02*
X70883333Y-126876333D01*
X70950000Y-126828714D01*
X71050000Y-126828714D01*
X71116666Y-126876333D01*
X71150000Y-126971571D01*
X71150000Y-127495380D01*
X71150000Y-126971571D02*
X71183333Y-126876333D01*
X71250000Y-126828714D01*
X71350000Y-126828714D01*
X71416666Y-126876333D01*
X71450000Y-126971571D01*
X71450000Y-127495380D01*
X68050000Y-128105380D02*
X68116666Y-128105380D01*
X68183333Y-128153000D01*
X68216666Y-128200619D01*
X68250000Y-128295857D01*
X68283333Y-128486333D01*
X68283333Y-128724428D01*
X68250000Y-128914904D01*
X68216666Y-129010142D01*
X68183333Y-129057761D01*
X68116666Y-129105380D01*
X68050000Y-129105380D01*
X67983333Y-129057761D01*
X67950000Y-129010142D01*
X67916666Y-128914904D01*
X67883333Y-128724428D01*
X67883333Y-128486333D01*
X67916666Y-128295857D01*
X67950000Y-128200619D01*
X67983333Y-128153000D01*
X68050000Y-128105380D01*
X68583333Y-129010142D02*
X68616666Y-129057761D01*
X68583333Y-129105380D01*
X68550000Y-129057761D01*
X68583333Y-129010142D01*
X68583333Y-129105380D01*
X69216666Y-128105380D02*
X69083333Y-128105380D01*
X69016666Y-128153000D01*
X68983333Y-128200619D01*
X68916666Y-128343476D01*
X68883333Y-128533952D01*
X68883333Y-128914904D01*
X68916666Y-129010142D01*
X68950000Y-129057761D01*
X69016666Y-129105380D01*
X69150000Y-129105380D01*
X69216666Y-129057761D01*
X69250000Y-129010142D01*
X69283333Y-128914904D01*
X69283333Y-128676809D01*
X69250000Y-128581571D01*
X69216666Y-128533952D01*
X69150000Y-128486333D01*
X69016666Y-128486333D01*
X68950000Y-128533952D01*
X68916666Y-128581571D01*
X68883333Y-128676809D01*
X69916666Y-128105380D02*
X69583333Y-128105380D01*
X69550000Y-128581571D01*
X69583333Y-128533952D01*
X69650000Y-128486333D01*
X69816666Y-128486333D01*
X69883333Y-128533952D01*
X69916666Y-128581571D01*
X69950000Y-128676809D01*
X69950000Y-128914904D01*
X69916666Y-129010142D01*
X69883333Y-129057761D01*
X69816666Y-129105380D01*
X69650000Y-129105380D01*
X69583333Y-129057761D01*
X69550000Y-129010142D01*
X70250000Y-129105380D02*
X70250000Y-128438714D01*
X70250000Y-128533952D02*
X70283333Y-128486333D01*
X70350000Y-128438714D01*
X70450000Y-128438714D01*
X70516666Y-128486333D01*
X70550000Y-128581571D01*
X70550000Y-129105380D01*
X70550000Y-128581571D02*
X70583333Y-128486333D01*
X70650000Y-128438714D01*
X70750000Y-128438714D01*
X70816666Y-128486333D01*
X70850000Y-128581571D01*
X70850000Y-129105380D01*
X71183333Y-129105380D02*
X71183333Y-128438714D01*
X71183333Y-128533952D02*
X71216666Y-128486333D01*
X71283333Y-128438714D01*
X71383333Y-128438714D01*
X71450000Y-128486333D01*
X71483333Y-128581571D01*
X71483333Y-129105380D01*
X71483333Y-128581571D02*
X71516666Y-128486333D01*
X71583333Y-128438714D01*
X71683333Y-128438714D01*
X71750000Y-128486333D01*
X71783333Y-128581571D01*
X71783333Y-129105380D01*
X68066666Y-111380380D02*
X68500000Y-111380380D01*
X68266666Y-111761333D01*
X68366666Y-111761333D01*
X68433333Y-111808952D01*
X68466666Y-111856571D01*
X68500000Y-111951809D01*
X68500000Y-112189904D01*
X68466666Y-112285142D01*
X68433333Y-112332761D01*
X68366666Y-112380380D01*
X68166666Y-112380380D01*
X68100000Y-112332761D01*
X68066666Y-112285142D01*
X68733333Y-112380380D02*
X69100000Y-111713714D01*
X68733333Y-111713714D02*
X69100000Y-112380380D01*
X69300000Y-111380380D02*
X69733333Y-111380380D01*
X69500000Y-111761333D01*
X69600000Y-111761333D01*
X69666666Y-111808952D01*
X69700000Y-111856571D01*
X69733333Y-111951809D01*
X69733333Y-112189904D01*
X69700000Y-112285142D01*
X69666666Y-112332761D01*
X69600000Y-112380380D01*
X69400000Y-112380380D01*
X69333333Y-112332761D01*
X69300000Y-112285142D01*
X70033333Y-112380380D02*
X70033333Y-111713714D01*
X70033333Y-111808952D02*
X70066666Y-111761333D01*
X70133333Y-111713714D01*
X70233333Y-111713714D01*
X70300000Y-111761333D01*
X70333333Y-111856571D01*
X70333333Y-112380380D01*
X70333333Y-111856571D02*
X70366666Y-111761333D01*
X70433333Y-111713714D01*
X70533333Y-111713714D01*
X70600000Y-111761333D01*
X70633333Y-111856571D01*
X70633333Y-112380380D01*
X70966666Y-112380380D02*
X70966666Y-111713714D01*
X70966666Y-111808952D02*
X71000000Y-111761333D01*
X71066666Y-111713714D01*
X71166666Y-111713714D01*
X71233333Y-111761333D01*
X71266666Y-111856571D01*
X71266666Y-112380380D01*
X71266666Y-111856571D02*
X71300000Y-111761333D01*
X71366666Y-111713714D01*
X71466666Y-111713714D01*
X71533333Y-111761333D01*
X71566666Y-111856571D01*
X71566666Y-112380380D01*
X69583333Y-113990380D02*
X69516666Y-113942761D01*
X69483333Y-113895142D01*
X69450000Y-113799904D01*
X69450000Y-113514190D01*
X69483333Y-113418952D01*
X69516666Y-113371333D01*
X69583333Y-113323714D01*
X69683333Y-113323714D01*
X69750000Y-113371333D01*
X69783333Y-113418952D01*
X69816666Y-113514190D01*
X69816666Y-113799904D01*
X69783333Y-113895142D01*
X69750000Y-113942761D01*
X69683333Y-113990380D01*
X69583333Y-113990380D01*
X70116666Y-113990380D02*
X70116666Y-113323714D01*
X70116666Y-113514190D02*
X70150000Y-113418952D01*
X70183333Y-113371333D01*
X70250000Y-113323714D01*
X70316666Y-113323714D01*
X68433333Y-114933714D02*
X68433333Y-115600380D01*
X68266666Y-114552761D02*
X68100000Y-115267047D01*
X68533333Y-115267047D01*
X68733333Y-115600380D02*
X69100000Y-114933714D01*
X68733333Y-114933714D02*
X69100000Y-115600380D01*
X69666666Y-114933714D02*
X69666666Y-115600380D01*
X69500000Y-114552761D02*
X69333333Y-115267047D01*
X69766666Y-115267047D01*
X70033333Y-115600380D02*
X70033333Y-114933714D01*
X70033333Y-115028952D02*
X70066666Y-114981333D01*
X70133333Y-114933714D01*
X70233333Y-114933714D01*
X70300000Y-114981333D01*
X70333333Y-115076571D01*
X70333333Y-115600380D01*
X70333333Y-115076571D02*
X70366666Y-114981333D01*
X70433333Y-114933714D01*
X70533333Y-114933714D01*
X70600000Y-114981333D01*
X70633333Y-115076571D01*
X70633333Y-115600380D01*
X70966666Y-115600380D02*
X70966666Y-114933714D01*
X70966666Y-115028952D02*
X71000000Y-114981333D01*
X71066666Y-114933714D01*
X71166666Y-114933714D01*
X71233333Y-114981333D01*
X71266666Y-115076571D01*
X71266666Y-115600380D01*
X71266666Y-115076571D02*
X71300000Y-114981333D01*
X71366666Y-114933714D01*
X71466666Y-114933714D01*
X71533333Y-114981333D01*
X71566666Y-115076571D01*
X71566666Y-115600380D01*
D11*
X67728500Y-110490000D02*
G75*
G03*
X67728500Y-110490000I-164500J0D01*
G01*
D12*
X64710000Y-129600000D02*
X67370000Y-129600000D01*
X67370000Y-111760000D02*
X67370000Y-129600000D01*
X64710000Y-109160000D02*
X66040000Y-109160000D01*
X64710000Y-111760000D02*
X67370000Y-111760000D01*
X64710000Y-111760000D02*
X64710000Y-129600000D01*
X64710000Y-110490000D02*
X64710000Y-109160000D01*
X74990000Y-126985000D02*
X72330000Y-126985000D01*
X72330000Y-126985000D02*
X72330000Y-109145000D01*
X74990000Y-126985000D02*
X74990000Y-109145000D01*
X74990000Y-129585000D02*
X73660000Y-129585000D01*
X74990000Y-109145000D02*
X72330000Y-109145000D01*
X74990000Y-128255000D02*
X74990000Y-129585000D01*
X69337348Y-121851338D02*
X69850000Y-122363991D01*
X69850000Y-122363991D02*
X70362652Y-121851338D01*
X66866009Y-119380000D02*
X67378662Y-118867348D01*
X72321338Y-118867348D02*
X72833991Y-119380000D01*
X67378662Y-119892652D02*
X66866009Y-119380000D01*
X72833991Y-119380000D02*
X72321338Y-119892652D01*
G36*
X70363925Y-116909935D02*
G01*
X69342227Y-116906328D01*
X69851273Y-116397282D01*
X70363925Y-116909935D01*
G37*
X70363925Y-116909935D02*
X69342227Y-116906328D01*
X69851273Y-116397282D01*
X70363925Y-116909935D01*
%LPC*%
D13*
X66040000Y-110490000D03*
D14*
X66040000Y-113030000D03*
X66040000Y-115570000D03*
X66040000Y-118110000D03*
X66040000Y-120650000D03*
X66040000Y-123190000D03*
X66040000Y-125730000D03*
X66040000Y-128270000D03*
D13*
X73660000Y-128255000D03*
D14*
X73660000Y-125715000D03*
X73660000Y-123175000D03*
X73660000Y-120635000D03*
X73660000Y-118095000D03*
X73660000Y-115555000D03*
X73660000Y-113015000D03*
X73660000Y-110475000D03*
D15*
X69206038Y-117473569D03*
D16*
X68787643Y-117891964D03*
X68361964Y-118317643D03*
D15*
X67943569Y-118736038D03*
D17*
X67943569Y-120023962D03*
D18*
X68361964Y-120442357D03*
X68787643Y-120868036D03*
D17*
X69206038Y-121286431D03*
D15*
X70493962Y-121286431D03*
D16*
X70912357Y-120868036D03*
X71338036Y-120442357D03*
D15*
X71756431Y-120023962D03*
D17*
X71756431Y-118736038D03*
D18*
X71338036Y-118317643D03*
X70912357Y-117891964D03*
D17*
X70493962Y-117473569D03*
D19*
X69850000Y-119380000D03*
M02*
