G04 #@! TF.GenerationSoftware,KiCad,Pcbnew,(6.0.9)*
G04 #@! TF.CreationDate,2023-05-28T18:51:30+02:00*
G04 #@! TF.ProjectId,SOIC-SSOP-DIP adapter,534f4943-2d53-4534-9f50-2d4449502061,rev?*
G04 #@! TF.SameCoordinates,Original*
G04 #@! TF.FileFunction,Legend,Bot*
G04 #@! TF.FilePolarity,Positive*
%FSLAX46Y46*%
G04 Gerber Fmt 4.6, Leading zero omitted, Abs format (unit mm)*
G04 Created by KiCad (PCBNEW (6.0.9)) date 2023-05-28 18:51:30*
%MOMM*%
%LPD*%
G01*
G04 APERTURE LIST*
G04 Aperture macros list*
%AMRotRect*
0 Rectangle, with rotation*
0 The origin of the aperture is its center*
0 $1 length*
0 $2 width*
0 $3 Rotation angle, in degrees counterclockwise*
0 Add horizontal line*
21,1,$1,$2,0,0,$3*%
G04 Aperture macros list end*
%ADD10C,0.150000*%
%ADD11R,1.700000X1.700000*%
%ADD12O,1.700000X1.700000*%
%ADD13RotRect,2.286000X2.286000X315.000000*%
G04 APERTURE END LIST*
D10*
X71970876Y-110891580D02*
X72542304Y-110891580D01*
X72256590Y-110891580D02*
X72256590Y-109891580D01*
X72351828Y-110034438D01*
X72447066Y-110129676D01*
X72542304Y-110177295D01*
X71113733Y-109891580D02*
X71304209Y-109891580D01*
X71399447Y-109939200D01*
X71447066Y-109986819D01*
X71542304Y-110129676D01*
X71589923Y-110320152D01*
X71589923Y-110701104D01*
X71542304Y-110796342D01*
X71494685Y-110843961D01*
X71399447Y-110891580D01*
X71208971Y-110891580D01*
X71113733Y-110843961D01*
X71066114Y-110796342D01*
X71018495Y-110701104D01*
X71018495Y-110463009D01*
X71066114Y-110367771D01*
X71113733Y-110320152D01*
X71208971Y-110272533D01*
X71399447Y-110272533D01*
X71494685Y-110320152D01*
X71542304Y-110367771D01*
X71589923Y-110463009D01*
X71716876Y-121051580D02*
X72288304Y-121051580D01*
X72002590Y-121051580D02*
X72002590Y-120051580D01*
X72097828Y-120194438D01*
X72193066Y-120289676D01*
X72288304Y-120337295D01*
X71335923Y-120146819D02*
X71288304Y-120099200D01*
X71193066Y-120051580D01*
X70954971Y-120051580D01*
X70859733Y-120099200D01*
X70812114Y-120146819D01*
X70764495Y-120242057D01*
X70764495Y-120337295D01*
X70812114Y-120480152D01*
X71383542Y-121051580D01*
X70764495Y-121051580D01*
X71970876Y-113431580D02*
X72542304Y-113431580D01*
X72256590Y-113431580D02*
X72256590Y-112431580D01*
X72351828Y-112574438D01*
X72447066Y-112669676D01*
X72542304Y-112717295D01*
X71066114Y-112431580D02*
X71542304Y-112431580D01*
X71589923Y-112907771D01*
X71542304Y-112860152D01*
X71447066Y-112812533D01*
X71208971Y-112812533D01*
X71113733Y-112860152D01*
X71066114Y-112907771D01*
X71018495Y-113003009D01*
X71018495Y-113241104D01*
X71066114Y-113336342D01*
X71113733Y-113383961D01*
X71208971Y-113431580D01*
X71447066Y-113431580D01*
X71542304Y-113383961D01*
X71589923Y-113336342D01*
X71716876Y-123591580D02*
X72288304Y-123591580D01*
X72002590Y-123591580D02*
X72002590Y-122591580D01*
X72097828Y-122734438D01*
X72193066Y-122829676D01*
X72288304Y-122877295D01*
X70764495Y-123591580D02*
X71335923Y-123591580D01*
X71050209Y-123591580D02*
X71050209Y-122591580D01*
X71145447Y-122734438D01*
X71240685Y-122829676D01*
X71335923Y-122877295D01*
X71970876Y-115971580D02*
X72542304Y-115971580D01*
X72256590Y-115971580D02*
X72256590Y-114971580D01*
X72351828Y-115114438D01*
X72447066Y-115209676D01*
X72542304Y-115257295D01*
X71113733Y-115304914D02*
X71113733Y-115971580D01*
X71351828Y-114923961D02*
X71589923Y-115638247D01*
X70970876Y-115638247D01*
X67325904Y-120102380D02*
X67802095Y-120102380D01*
X67849714Y-120578571D01*
X67802095Y-120530952D01*
X67706857Y-120483333D01*
X67468761Y-120483333D01*
X67373523Y-120530952D01*
X67325904Y-120578571D01*
X67278285Y-120673809D01*
X67278285Y-120911904D01*
X67325904Y-121007142D01*
X67373523Y-121054761D01*
X67468761Y-121102380D01*
X67706857Y-121102380D01*
X67802095Y-121054761D01*
X67849714Y-121007142D01*
X67627523Y-117895714D02*
X67627523Y-118562380D01*
X67865619Y-117514761D02*
X68103714Y-118229047D01*
X67484666Y-118229047D01*
X68103714Y-112577619D02*
X68056095Y-112530000D01*
X67960857Y-112482380D01*
X67722761Y-112482380D01*
X67627523Y-112530000D01*
X67579904Y-112577619D01*
X67532285Y-112672857D01*
X67532285Y-112768095D01*
X67579904Y-112910952D01*
X68151333Y-113482380D01*
X67532285Y-113482380D01*
X67897333Y-125182380D02*
X67230666Y-125182380D01*
X67659238Y-126182380D01*
X71716876Y-126131580D02*
X72288304Y-126131580D01*
X72002590Y-126131580D02*
X72002590Y-125131580D01*
X72097828Y-125274438D01*
X72193066Y-125369676D01*
X72288304Y-125417295D01*
X71097828Y-125131580D02*
X71002590Y-125131580D01*
X70907352Y-125179200D01*
X70859733Y-125226819D01*
X70812114Y-125322057D01*
X70764495Y-125512533D01*
X70764495Y-125750628D01*
X70812114Y-125941104D01*
X70859733Y-126036342D01*
X70907352Y-126083961D01*
X71002590Y-126131580D01*
X71097828Y-126131580D01*
X71193066Y-126083961D01*
X71240685Y-126036342D01*
X71288304Y-125941104D01*
X71335923Y-125750628D01*
X71335923Y-125512533D01*
X71288304Y-125322057D01*
X71240685Y-125226819D01*
X71193066Y-125179200D01*
X71097828Y-125131580D01*
X67659238Y-128150952D02*
X67754476Y-128103333D01*
X67802095Y-128055714D01*
X67849714Y-127960476D01*
X67849714Y-127912857D01*
X67802095Y-127817619D01*
X67754476Y-127770000D01*
X67659238Y-127722380D01*
X67468761Y-127722380D01*
X67373523Y-127770000D01*
X67325904Y-127817619D01*
X67278285Y-127912857D01*
X67278285Y-127960476D01*
X67325904Y-128055714D01*
X67373523Y-128103333D01*
X67468761Y-128150952D01*
X67659238Y-128150952D01*
X67754476Y-128198571D01*
X67802095Y-128246190D01*
X67849714Y-128341428D01*
X67849714Y-128531904D01*
X67802095Y-128627142D01*
X67754476Y-128674761D01*
X67659238Y-128722380D01*
X67468761Y-128722380D01*
X67373523Y-128674761D01*
X67325904Y-128627142D01*
X67278285Y-128531904D01*
X67278285Y-128341428D01*
X67325904Y-128246190D01*
X67373523Y-128198571D01*
X67468761Y-128150952D01*
X67532285Y-110942380D02*
X68103714Y-110942380D01*
X67818000Y-110942380D02*
X67818000Y-109942380D01*
X67913238Y-110085238D01*
X68008476Y-110180476D01*
X68103714Y-110228095D01*
X67373523Y-122642380D02*
X67564000Y-122642380D01*
X67659238Y-122690000D01*
X67706857Y-122737619D01*
X67802095Y-122880476D01*
X67849714Y-123070952D01*
X67849714Y-123451904D01*
X67802095Y-123547142D01*
X67754476Y-123594761D01*
X67659238Y-123642380D01*
X67468761Y-123642380D01*
X67373523Y-123594761D01*
X67325904Y-123547142D01*
X67278285Y-123451904D01*
X67278285Y-123213809D01*
X67325904Y-123118571D01*
X67373523Y-123070952D01*
X67468761Y-123023333D01*
X67659238Y-123023333D01*
X67754476Y-123070952D01*
X67802095Y-123118571D01*
X67849714Y-123213809D01*
X68151333Y-115022380D02*
X67532285Y-115022380D01*
X67865619Y-115403333D01*
X67722761Y-115403333D01*
X67627523Y-115450952D01*
X67579904Y-115498571D01*
X67532285Y-115593809D01*
X67532285Y-115831904D01*
X67579904Y-115927142D01*
X67627523Y-115974761D01*
X67722761Y-116022380D01*
X68008476Y-116022380D01*
X68103714Y-115974761D01*
X68151333Y-115927142D01*
X71970876Y-118511580D02*
X72542304Y-118511580D01*
X72256590Y-118511580D02*
X72256590Y-117511580D01*
X72351828Y-117654438D01*
X72447066Y-117749676D01*
X72542304Y-117797295D01*
X71637542Y-117511580D02*
X71018495Y-117511580D01*
X71351828Y-117892533D01*
X71208971Y-117892533D01*
X71113733Y-117940152D01*
X71066114Y-117987771D01*
X71018495Y-118083009D01*
X71018495Y-118321104D01*
X71066114Y-118416342D01*
X71113733Y-118463961D01*
X71208971Y-118511580D01*
X71494685Y-118511580D01*
X71589923Y-118463961D01*
X71637542Y-118416342D01*
X71716876Y-128671580D02*
X71526400Y-128671580D01*
X71431161Y-128623961D01*
X71383542Y-128576342D01*
X71288304Y-128433485D01*
X71240685Y-128243009D01*
X71240685Y-127862057D01*
X71288304Y-127766819D01*
X71335923Y-127719200D01*
X71431161Y-127671580D01*
X71621638Y-127671580D01*
X71716876Y-127719200D01*
X71764495Y-127766819D01*
X71812114Y-127862057D01*
X71812114Y-128100152D01*
X71764495Y-128195390D01*
X71716876Y-128243009D01*
X71621638Y-128290628D01*
X71431161Y-128290628D01*
X71335923Y-128243009D01*
X71288304Y-128195390D01*
X71240685Y-128100152D01*
%LPC*%
D11*
X66040000Y-110490000D03*
D12*
X66040000Y-113030000D03*
X66040000Y-115570000D03*
X66040000Y-118110000D03*
X66040000Y-120650000D03*
X66040000Y-123190000D03*
X66040000Y-125730000D03*
X66040000Y-128270000D03*
D11*
X73660000Y-128255000D03*
D12*
X73660000Y-125715000D03*
X73660000Y-123175000D03*
X73660000Y-120635000D03*
X73660000Y-118095000D03*
X73660000Y-115555000D03*
X73660000Y-113015000D03*
X73660000Y-110475000D03*
D13*
X69850000Y-119380000D03*
M02*
