G04 #@! TF.GenerationSoftware,KiCad,Pcbnew,(6.0.9)*
G04 #@! TF.CreationDate,2023-05-28T18:51:30+02:00*
G04 #@! TF.ProjectId,SOIC-SSOP-DIP adapter,534f4943-2d53-4534-9f50-2d4449502061,rev?*
G04 #@! TF.SameCoordinates,Original*
G04 #@! TF.FileFunction,Copper,L2,Bot*
G04 #@! TF.FilePolarity,Positive*
%FSLAX46Y46*%
G04 Gerber Fmt 4.6, Leading zero omitted, Abs format (unit mm)*
G04 Created by KiCad (PCBNEW (6.0.9)) date 2023-05-28 18:51:30*
%MOMM*%
%LPD*%
G01*
G04 APERTURE LIST*
G04 Aperture macros list*
%AMRotRect*
0 Rectangle, with rotation*
0 The origin of the aperture is its center*
0 $1 length*
0 $2 width*
0 $3 Rotation angle, in degrees counterclockwise*
0 Add horizontal line*
21,1,$1,$2,0,0,$3*%
G04 Aperture macros list end*
G04 #@! TA.AperFunction,ComponentPad*
%ADD10R,1.700000X1.700000*%
G04 #@! TD*
G04 #@! TA.AperFunction,ComponentPad*
%ADD11O,1.700000X1.700000*%
G04 #@! TD*
G04 #@! TA.AperFunction,SMDPad,CuDef*
%ADD12RotRect,2.286000X2.286000X315.000000*%
G04 #@! TD*
G04 #@! TA.AperFunction,ViaPad*
%ADD13C,0.800000*%
G04 #@! TD*
G04 APERTURE END LIST*
D10*
X66040000Y-110490000D03*
D11*
X66040000Y-113030000D03*
X66040000Y-115570000D03*
X66040000Y-118110000D03*
X66040000Y-120650000D03*
X66040000Y-123190000D03*
X66040000Y-125730000D03*
X66040000Y-128270000D03*
D10*
X73660000Y-128255000D03*
D11*
X73660000Y-125715000D03*
X73660000Y-123175000D03*
X73660000Y-120635000D03*
X73660000Y-118095000D03*
X73660000Y-115555000D03*
X73660000Y-113015000D03*
X73660000Y-110475000D03*
D12*
X69850000Y-119380000D03*
D13*
X69088000Y-119380000D03*
X69850000Y-120142000D03*
X69850000Y-119380000D03*
X70612000Y-119380000D03*
X69850000Y-118618000D03*
G04 #@! TA.AperFunction,Conductor*
G36*
X71824121Y-109240502D02*
G01*
X71870614Y-109294158D01*
X71882000Y-109346500D01*
X71882000Y-118772943D01*
X71861998Y-118841064D01*
X71808342Y-118887557D01*
X71738068Y-118897661D01*
X71673488Y-118868167D01*
X71666905Y-118862039D01*
X71209846Y-118404981D01*
X71195908Y-118397370D01*
X71194072Y-118397502D01*
X71187460Y-118401751D01*
X70222020Y-119367190D01*
X70214408Y-119381131D01*
X70214539Y-119382966D01*
X70218790Y-119389580D01*
X71184226Y-120355015D01*
X71198170Y-120362629D01*
X71200004Y-120362498D01*
X71206616Y-120358249D01*
X71666905Y-119897960D01*
X71729217Y-119863934D01*
X71800032Y-119868999D01*
X71856868Y-119911546D01*
X71881679Y-119978066D01*
X71882000Y-119987055D01*
X71882000Y-129413500D01*
X71861998Y-129481621D01*
X71808342Y-129528114D01*
X71756000Y-129539500D01*
X67936455Y-129539500D01*
X67868334Y-129519498D01*
X67821841Y-129465842D01*
X67810464Y-129415000D01*
X67707050Y-120728170D01*
X68867371Y-120728170D01*
X68867502Y-120730004D01*
X68871751Y-120736616D01*
X69522374Y-121387239D01*
X69527458Y-121391801D01*
X69567331Y-121423861D01*
X69580681Y-121432083D01*
X69697786Y-121485327D01*
X69714841Y-121490314D01*
X69841111Y-121508397D01*
X69858889Y-121508397D01*
X69985159Y-121490314D01*
X70002214Y-121485327D01*
X70119317Y-121432084D01*
X70132670Y-121423861D01*
X70172551Y-121391795D01*
X70177615Y-121387251D01*
X70825019Y-120739846D01*
X70832630Y-120725908D01*
X70832498Y-120724072D01*
X70828249Y-120717460D01*
X69862810Y-119752020D01*
X69848869Y-119744408D01*
X69847034Y-119744539D01*
X69840420Y-119748790D01*
X68874985Y-120714226D01*
X68867371Y-120728170D01*
X67707050Y-120728170D01*
X67696802Y-119867350D01*
X67715992Y-119798996D01*
X67769090Y-119751868D01*
X67839239Y-119740928D01*
X67904166Y-119769650D01*
X67911888Y-119776754D01*
X68490154Y-120355019D01*
X68504092Y-120362630D01*
X68505928Y-120362498D01*
X68512540Y-120358249D01*
X69477980Y-119392810D01*
X69485592Y-119378869D01*
X69485461Y-119377034D01*
X69481210Y-119370420D01*
X68515774Y-118404985D01*
X68501830Y-118397371D01*
X68499996Y-118397502D01*
X68493384Y-118401751D01*
X67900456Y-118994679D01*
X67838144Y-119028705D01*
X67767329Y-119023640D01*
X67710493Y-118981093D01*
X67685682Y-118914573D01*
X67685370Y-118907084D01*
X67674977Y-118034092D01*
X68867370Y-118034092D01*
X68867502Y-118035928D01*
X68871751Y-118042540D01*
X69837190Y-119007980D01*
X69851131Y-119015592D01*
X69852966Y-119015461D01*
X69859580Y-119011210D01*
X70825015Y-118045774D01*
X70832629Y-118031830D01*
X70832498Y-118029996D01*
X70828249Y-118023384D01*
X70177626Y-117372761D01*
X70172542Y-117368199D01*
X70132669Y-117336139D01*
X70119319Y-117327917D01*
X70002214Y-117274673D01*
X69985159Y-117269686D01*
X69858889Y-117251603D01*
X69841111Y-117251603D01*
X69714841Y-117269686D01*
X69697786Y-117274673D01*
X69580683Y-117327916D01*
X69567330Y-117336139D01*
X69527449Y-117368205D01*
X69522385Y-117372749D01*
X68874981Y-118020154D01*
X68867370Y-118034092D01*
X67674977Y-118034092D01*
X67571572Y-109348000D01*
X67590762Y-109279646D01*
X67643860Y-109232518D01*
X67697563Y-109220500D01*
X71756000Y-109220500D01*
X71824121Y-109240502D01*
G37*
G04 #@! TD.AperFunction*
M02*
