G04 #@! TF.GenerationSoftware,KiCad,Pcbnew,(6.0.9)*
G04 #@! TF.CreationDate,2023-05-28T18:52:16+02:00*
G04 #@! TF.ProjectId,SOIC-SSOP-DIP adapter,534f4943-2d53-4534-9f50-2d4449502061,rev?*
G04 #@! TF.SameCoordinates,Original*
G04 #@! TF.FileFunction,Legend,Top*
G04 #@! TF.FilePolarity,Positive*
%FSLAX46Y46*%
G04 Gerber Fmt 4.6, Leading zero omitted, Abs format (unit mm)*
G04 Created by KiCad (PCBNEW (6.0.9)) date 2023-05-28 18:52:16*
%MOMM*%
%LPD*%
G01*
G04 APERTURE LIST*
G04 Aperture macros list*
%AMRoundRect*
0 Rectangle with rounded corners*
0 $1 Rounding radius*
0 $2 $3 $4 $5 $6 $7 $8 $9 X,Y pos of 4 corners*
0 Add a 4 corners polygon primitive as box body*
4,1,4,$2,$3,$4,$5,$6,$7,$8,$9,$2,$3,0*
0 Add four circle primitives for the rounded corners*
1,1,$1+$1,$2,$3*
1,1,$1+$1,$4,$5*
1,1,$1+$1,$6,$7*
1,1,$1+$1,$8,$9*
0 Add four rect primitives between the rounded corners*
20,1,$1+$1,$2,$3,$4,$5,0*
20,1,$1+$1,$4,$5,$6,$7,0*
20,1,$1+$1,$6,$7,$8,$9,0*
20,1,$1+$1,$8,$9,$2,$3,0*%
G04 Aperture macros list end*
%ADD10C,0.150000*%
%ADD11C,0.329000*%
%ADD12C,0.120000*%
%ADD13RoundRect,0.100000X-0.747500X-0.100000X0.747500X-0.100000X0.747500X0.100000X-0.747500X0.100000X0*%
%ADD14RoundRect,0.099500X-0.748000X-0.099500X0.748000X-0.099500X0.748000X0.099500X-0.748000X0.099500X0*%
%ADD15RoundRect,0.107000X-0.740500X-0.107000X0.740500X-0.107000X0.740500X0.107000X-0.740500X0.107000X0*%
%ADD16R,1.700000X1.700000*%
%ADD17O,1.700000X1.700000*%
G04 APERTURE END LIST*
D10*
X91296666Y-129795380D02*
X91696666Y-129795380D01*
X91496666Y-130795380D02*
X91496666Y-129795380D01*
X91896666Y-130747761D02*
X91996666Y-130795380D01*
X92163333Y-130795380D01*
X92230000Y-130747761D01*
X92263333Y-130700142D01*
X92296666Y-130604904D01*
X92296666Y-130509666D01*
X92263333Y-130414428D01*
X92230000Y-130366809D01*
X92163333Y-130319190D01*
X92030000Y-130271571D01*
X91963333Y-130223952D01*
X91930000Y-130176333D01*
X91896666Y-130081095D01*
X91896666Y-129985857D01*
X91930000Y-129890619D01*
X91963333Y-129843000D01*
X92030000Y-129795380D01*
X92196666Y-129795380D01*
X92296666Y-129843000D01*
X92563333Y-130747761D02*
X92663333Y-130795380D01*
X92830000Y-130795380D01*
X92896666Y-130747761D01*
X92930000Y-130700142D01*
X92963333Y-130604904D01*
X92963333Y-130509666D01*
X92930000Y-130414428D01*
X92896666Y-130366809D01*
X92830000Y-130319190D01*
X92696666Y-130271571D01*
X92630000Y-130223952D01*
X92596666Y-130176333D01*
X92563333Y-130081095D01*
X92563333Y-129985857D01*
X92596666Y-129890619D01*
X92630000Y-129843000D01*
X92696666Y-129795380D01*
X92863333Y-129795380D01*
X92963333Y-129843000D01*
X93396666Y-129795380D02*
X93530000Y-129795380D01*
X93596666Y-129843000D01*
X93663333Y-129938238D01*
X93696666Y-130128714D01*
X93696666Y-130462047D01*
X93663333Y-130652523D01*
X93596666Y-130747761D01*
X93530000Y-130795380D01*
X93396666Y-130795380D01*
X93330000Y-130747761D01*
X93263333Y-130652523D01*
X93230000Y-130462047D01*
X93230000Y-130128714D01*
X93263333Y-129938238D01*
X93330000Y-129843000D01*
X93396666Y-129795380D01*
X93996666Y-130795380D02*
X93996666Y-129795380D01*
X94263333Y-129795380D01*
X94330000Y-129843000D01*
X94363333Y-129890619D01*
X94396666Y-129985857D01*
X94396666Y-130128714D01*
X94363333Y-130223952D01*
X94330000Y-130271571D01*
X94263333Y-130319190D01*
X93996666Y-130319190D01*
X94696666Y-130414428D02*
X95230000Y-130414428D01*
X95530000Y-129890619D02*
X95563333Y-129843000D01*
X95630000Y-129795380D01*
X95796666Y-129795380D01*
X95863333Y-129843000D01*
X95896666Y-129890619D01*
X95930000Y-129985857D01*
X95930000Y-130081095D01*
X95896666Y-130223952D01*
X95496666Y-130795380D01*
X95930000Y-130795380D01*
X96363333Y-129795380D02*
X96430000Y-129795380D01*
X96496666Y-129843000D01*
X96530000Y-129890619D01*
X96563333Y-129985857D01*
X96596666Y-130176333D01*
X96596666Y-130414428D01*
X96563333Y-130604904D01*
X96530000Y-130700142D01*
X96496666Y-130747761D01*
X96430000Y-130795380D01*
X96363333Y-130795380D01*
X96296666Y-130747761D01*
X96263333Y-130700142D01*
X96230000Y-130604904D01*
X96196666Y-130414428D01*
X96196666Y-130176333D01*
X96230000Y-129985857D01*
X96263333Y-129890619D01*
X96296666Y-129843000D01*
X96363333Y-129795380D01*
X91563333Y-131738714D02*
X91563333Y-132405380D01*
X91396666Y-131357761D02*
X91230000Y-132072047D01*
X91663333Y-132072047D01*
X91930000Y-132310142D02*
X91963333Y-132357761D01*
X91930000Y-132405380D01*
X91896666Y-132357761D01*
X91930000Y-132310142D01*
X91930000Y-132405380D01*
X92563333Y-131738714D02*
X92563333Y-132405380D01*
X92396666Y-131357761D02*
X92230000Y-132072047D01*
X92663333Y-132072047D01*
X92863333Y-132405380D02*
X93230000Y-131738714D01*
X92863333Y-131738714D02*
X93230000Y-132405380D01*
X93796666Y-131405380D02*
X93663333Y-131405380D01*
X93596666Y-131453000D01*
X93563333Y-131500619D01*
X93496666Y-131643476D01*
X93463333Y-131833952D01*
X93463333Y-132214904D01*
X93496666Y-132310142D01*
X93530000Y-132357761D01*
X93596666Y-132405380D01*
X93730000Y-132405380D01*
X93796666Y-132357761D01*
X93830000Y-132310142D01*
X93863333Y-132214904D01*
X93863333Y-131976809D01*
X93830000Y-131881571D01*
X93796666Y-131833952D01*
X93730000Y-131786333D01*
X93596666Y-131786333D01*
X93530000Y-131833952D01*
X93496666Y-131881571D01*
X93463333Y-131976809D01*
X94163333Y-132310142D02*
X94196666Y-132357761D01*
X94163333Y-132405380D01*
X94130000Y-132357761D01*
X94163333Y-132310142D01*
X94163333Y-132405380D01*
X94830000Y-131405380D02*
X94496666Y-131405380D01*
X94463333Y-131881571D01*
X94496666Y-131833952D01*
X94563333Y-131786333D01*
X94730000Y-131786333D01*
X94796666Y-131833952D01*
X94830000Y-131881571D01*
X94863333Y-131976809D01*
X94863333Y-132214904D01*
X94830000Y-132310142D01*
X94796666Y-132357761D01*
X94730000Y-132405380D01*
X94563333Y-132405380D01*
X94496666Y-132357761D01*
X94463333Y-132310142D01*
X95163333Y-132405380D02*
X95163333Y-131738714D01*
X95163333Y-131833952D02*
X95196666Y-131786333D01*
X95263333Y-131738714D01*
X95363333Y-131738714D01*
X95430000Y-131786333D01*
X95463333Y-131881571D01*
X95463333Y-132405380D01*
X95463333Y-131881571D02*
X95496666Y-131786333D01*
X95563333Y-131738714D01*
X95663333Y-131738714D01*
X95730000Y-131786333D01*
X95763333Y-131881571D01*
X95763333Y-132405380D01*
X96096666Y-132405380D02*
X96096666Y-131738714D01*
X96096666Y-131833952D02*
X96130000Y-131786333D01*
X96196666Y-131738714D01*
X96296666Y-131738714D01*
X96363333Y-131786333D01*
X96396666Y-131881571D01*
X96396666Y-132405380D01*
X96396666Y-131881571D02*
X96430000Y-131786333D01*
X96496666Y-131738714D01*
X96596666Y-131738714D01*
X96663333Y-131786333D01*
X96696666Y-131881571D01*
X96696666Y-132405380D01*
X91696666Y-134015380D02*
X91696666Y-133015380D01*
X91963333Y-133015380D01*
X92030000Y-133063000D01*
X92063333Y-133110619D01*
X92096666Y-133205857D01*
X92096666Y-133348714D01*
X92063333Y-133443952D01*
X92030000Y-133491571D01*
X91963333Y-133539190D01*
X91696666Y-133539190D01*
X92530000Y-133015380D02*
X92596666Y-133015380D01*
X92663333Y-133063000D01*
X92696666Y-133110619D01*
X92730000Y-133205857D01*
X92763333Y-133396333D01*
X92763333Y-133634428D01*
X92730000Y-133824904D01*
X92696666Y-133920142D01*
X92663333Y-133967761D01*
X92596666Y-134015380D01*
X92530000Y-134015380D01*
X92463333Y-133967761D01*
X92430000Y-133920142D01*
X92396666Y-133824904D01*
X92363333Y-133634428D01*
X92363333Y-133396333D01*
X92396666Y-133205857D01*
X92430000Y-133110619D01*
X92463333Y-133063000D01*
X92530000Y-133015380D01*
X93063333Y-133920142D02*
X93096666Y-133967761D01*
X93063333Y-134015380D01*
X93030000Y-133967761D01*
X93063333Y-133920142D01*
X93063333Y-134015380D01*
X93696666Y-133015380D02*
X93563333Y-133015380D01*
X93496666Y-133063000D01*
X93463333Y-133110619D01*
X93396666Y-133253476D01*
X93363333Y-133443952D01*
X93363333Y-133824904D01*
X93396666Y-133920142D01*
X93430000Y-133967761D01*
X93496666Y-134015380D01*
X93630000Y-134015380D01*
X93696666Y-133967761D01*
X93730000Y-133920142D01*
X93763333Y-133824904D01*
X93763333Y-133586809D01*
X93730000Y-133491571D01*
X93696666Y-133443952D01*
X93630000Y-133396333D01*
X93496666Y-133396333D01*
X93430000Y-133443952D01*
X93396666Y-133491571D01*
X93363333Y-133586809D01*
X94396666Y-133015380D02*
X94063333Y-133015380D01*
X94030000Y-133491571D01*
X94063333Y-133443952D01*
X94130000Y-133396333D01*
X94296666Y-133396333D01*
X94363333Y-133443952D01*
X94396666Y-133491571D01*
X94430000Y-133586809D01*
X94430000Y-133824904D01*
X94396666Y-133920142D01*
X94363333Y-133967761D01*
X94296666Y-134015380D01*
X94130000Y-134015380D01*
X94063333Y-133967761D01*
X94030000Y-133920142D01*
X94730000Y-134015380D02*
X94730000Y-133348714D01*
X94730000Y-133443952D02*
X94763333Y-133396333D01*
X94830000Y-133348714D01*
X94930000Y-133348714D01*
X94996666Y-133396333D01*
X95030000Y-133491571D01*
X95030000Y-134015380D01*
X95030000Y-133491571D02*
X95063333Y-133396333D01*
X95130000Y-133348714D01*
X95230000Y-133348714D01*
X95296666Y-133396333D01*
X95330000Y-133491571D01*
X95330000Y-134015380D01*
X95663333Y-134015380D02*
X95663333Y-133348714D01*
X95663333Y-133443952D02*
X95696666Y-133396333D01*
X95763333Y-133348714D01*
X95863333Y-133348714D01*
X95930000Y-133396333D01*
X95963333Y-133491571D01*
X95963333Y-134015380D01*
X95963333Y-133491571D02*
X95996666Y-133396333D01*
X96063333Y-133348714D01*
X96163333Y-133348714D01*
X96230000Y-133396333D01*
X96263333Y-133491571D01*
X96263333Y-134015380D01*
D11*
X90588500Y-110490000D02*
G75*
G03*
X90588500Y-110490000I-164500J0D01*
G01*
D12*
X97730000Y-132080000D02*
X97730000Y-109160000D01*
X100390000Y-133350000D02*
X100390000Y-134680000D01*
X100390000Y-132080000D02*
X100390000Y-109160000D01*
X100390000Y-132080000D02*
X97730000Y-132080000D01*
X100390000Y-109160000D02*
X97730000Y-109160000D01*
X100390000Y-134680000D02*
X99060000Y-134680000D01*
X90230000Y-111760000D02*
X90230000Y-134680000D01*
X87570000Y-111760000D02*
X90230000Y-111760000D01*
X87570000Y-110490000D02*
X87570000Y-109160000D01*
X87570000Y-109160000D02*
X88900000Y-109160000D01*
X87570000Y-134680000D02*
X90230000Y-134680000D01*
X87570000Y-111760000D02*
X87570000Y-134680000D01*
%LPC*%
D13*
X91227500Y-118995000D03*
X91227500Y-119645000D03*
X91227500Y-120295000D03*
X91227500Y-120945000D03*
D14*
X91227500Y-121594000D03*
D13*
X91227500Y-122245000D03*
X91227500Y-122895000D03*
X91227500Y-123545000D03*
X91227500Y-124195000D03*
X91227500Y-124845000D03*
X96732500Y-124845000D03*
X96732500Y-124195000D03*
X96732500Y-123545000D03*
X96732500Y-122895000D03*
X96732500Y-122245000D03*
X96732500Y-121595000D03*
X96732500Y-120945000D03*
D15*
X96732500Y-120309000D03*
D13*
X96732500Y-119645000D03*
X96732500Y-118995000D03*
D16*
X99060000Y-133350000D03*
D17*
X99060000Y-130810000D03*
X99060000Y-128270000D03*
X99060000Y-125730000D03*
X99060000Y-123190000D03*
X99060000Y-120650000D03*
X99060000Y-118110000D03*
X99060000Y-115570000D03*
X99060000Y-113030000D03*
X99060000Y-110490000D03*
D16*
X88900000Y-110490000D03*
D17*
X88900000Y-113030000D03*
X88900000Y-115570000D03*
X88900000Y-118110000D03*
X88900000Y-120650000D03*
X88900000Y-123190000D03*
X88900000Y-125730000D03*
X88900000Y-128270000D03*
X88900000Y-130810000D03*
X88900000Y-133350000D03*
M02*
