G04 #@! TF.GenerationSoftware,KiCad,Pcbnew,(6.0.9)*
G04 #@! TF.CreationDate,2023-05-28T18:52:16+02:00*
G04 #@! TF.ProjectId,SOIC-SSOP-DIP adapter,534f4943-2d53-4534-9f50-2d4449502061,rev?*
G04 #@! TF.SameCoordinates,Original*
G04 #@! TF.FileFunction,Copper,L1,Top*
G04 #@! TF.FilePolarity,Positive*
%FSLAX46Y46*%
G04 Gerber Fmt 4.6, Leading zero omitted, Abs format (unit mm)*
G04 Created by KiCad (PCBNEW (6.0.9)) date 2023-05-28 18:52:16*
%MOMM*%
%LPD*%
G01*
G04 APERTURE LIST*
G04 Aperture macros list*
%AMRoundRect*
0 Rectangle with rounded corners*
0 $1 Rounding radius*
0 $2 $3 $4 $5 $6 $7 $8 $9 X,Y pos of 4 corners*
0 Add a 4 corners polygon primitive as box body*
4,1,4,$2,$3,$4,$5,$6,$7,$8,$9,$2,$3,0*
0 Add four circle primitives for the rounded corners*
1,1,$1+$1,$2,$3*
1,1,$1+$1,$4,$5*
1,1,$1+$1,$6,$7*
1,1,$1+$1,$8,$9*
0 Add four rect primitives between the rounded corners*
20,1,$1+$1,$2,$3,$4,$5,0*
20,1,$1+$1,$4,$5,$6,$7,0*
20,1,$1+$1,$6,$7,$8,$9,0*
20,1,$1+$1,$8,$9,$2,$3,0*%
G04 Aperture macros list end*
G04 #@! TA.AperFunction,SMDPad,CuDef*
%ADD10RoundRect,0.100000X-0.747500X-0.100000X0.747500X-0.100000X0.747500X0.100000X-0.747500X0.100000X0*%
G04 #@! TD*
G04 #@! TA.AperFunction,SMDPad,CuDef*
%ADD11RoundRect,0.099500X-0.748000X-0.099500X0.748000X-0.099500X0.748000X0.099500X-0.748000X0.099500X0*%
G04 #@! TD*
G04 #@! TA.AperFunction,SMDPad,CuDef*
%ADD12RoundRect,0.107000X-0.740500X-0.107000X0.740500X-0.107000X0.740500X0.107000X-0.740500X0.107000X0*%
G04 #@! TD*
G04 #@! TA.AperFunction,ComponentPad*
%ADD13R,1.700000X1.700000*%
G04 #@! TD*
G04 #@! TA.AperFunction,ComponentPad*
%ADD14O,1.700000X1.700000*%
G04 #@! TD*
G04 #@! TA.AperFunction,ViaPad*
%ADD15C,0.900000*%
G04 #@! TD*
G04 #@! TA.AperFunction,Conductor*
%ADD16C,0.250000*%
G04 #@! TD*
G04 APERTURE END LIST*
D10*
X91227500Y-118995000D03*
X91227500Y-119645000D03*
X91227500Y-120295000D03*
X91227500Y-120945000D03*
D11*
X91227500Y-121594000D03*
D10*
X91227500Y-122245000D03*
X91227500Y-122895000D03*
X91227500Y-123545000D03*
X91227500Y-124195000D03*
X91227500Y-124845000D03*
X96732500Y-124845000D03*
X96732500Y-124195000D03*
X96732500Y-123545000D03*
X96732500Y-122895000D03*
X96732500Y-122245000D03*
X96732500Y-121595000D03*
X96732500Y-120945000D03*
D12*
X96732500Y-120309000D03*
D10*
X96732500Y-119645000D03*
X96732500Y-118995000D03*
D13*
X99060000Y-133350000D03*
D14*
X99060000Y-130810000D03*
X99060000Y-128270000D03*
X99060000Y-125730000D03*
X99060000Y-123190000D03*
X99060000Y-120650000D03*
X99060000Y-118110000D03*
X99060000Y-115570000D03*
X99060000Y-113030000D03*
X99060000Y-110490000D03*
D13*
X88900000Y-110490000D03*
D14*
X88900000Y-113030000D03*
X88900000Y-115570000D03*
X88900000Y-118110000D03*
X88900000Y-120650000D03*
X88900000Y-123190000D03*
X88900000Y-125730000D03*
X88900000Y-128270000D03*
X88900000Y-130810000D03*
X88900000Y-133350000D03*
D15*
X93345000Y-118110000D03*
X93345000Y-125730000D03*
X94615000Y-125730000D03*
X95504000Y-115570000D03*
X95504000Y-128270000D03*
X94615000Y-118110000D03*
X92456000Y-115570000D03*
X92456000Y-128270000D03*
D16*
X97917000Y-125211299D02*
X97536000Y-125592299D01*
X95933959Y-123545000D02*
X95504000Y-123974959D01*
X90424000Y-125857000D02*
X90424000Y-129286000D01*
X91117500Y-124845000D02*
X91117500Y-131132500D01*
X95504000Y-123974959D02*
X95504000Y-128270000D01*
X90428959Y-124195000D02*
X90055000Y-124568959D01*
X91117500Y-131132500D02*
X88900000Y-133350000D01*
X92037520Y-120295000D02*
X92456000Y-119876520D01*
X94615000Y-124213959D02*
X94615000Y-125730000D01*
X96732500Y-122895000D02*
X95933959Y-122895000D01*
X95933959Y-122895000D02*
X94615000Y-124213959D01*
X90424000Y-129286000D02*
X88900000Y-130810000D01*
X89845000Y-122245000D02*
X91117500Y-122245000D01*
X97917000Y-124580959D02*
X97917000Y-125211299D01*
X99060000Y-123190000D02*
X98115000Y-122245000D01*
X97536000Y-129286000D02*
X99060000Y-130810000D01*
X96842500Y-124195000D02*
X97531041Y-124195000D01*
X91117500Y-120295000D02*
X92037520Y-120295000D01*
X98115000Y-122245000D02*
X96842500Y-122245000D01*
X98115000Y-121595000D02*
X96842500Y-121595000D01*
X99060000Y-120650000D02*
X98115000Y-121595000D01*
X92456000Y-123974959D02*
X92456000Y-128270000D01*
X94615000Y-119660690D02*
X94615000Y-118110000D01*
X91117500Y-112707500D02*
X91117500Y-118995000D01*
X92060690Y-120945000D02*
X93345000Y-119660690D01*
X91117500Y-119645000D02*
X90428959Y-119645000D01*
X89845000Y-121595000D02*
X91117500Y-121595000D01*
X90428959Y-119645000D02*
X90055000Y-119271041D01*
X90424000Y-114554000D02*
X88900000Y-113030000D01*
X91117500Y-120945000D02*
X92060690Y-120945000D01*
X88900000Y-120650000D02*
X89845000Y-121595000D01*
X88900000Y-123190000D02*
X89845000Y-122245000D01*
X90424000Y-117983000D02*
X90424000Y-114554000D01*
X91227500Y-123545000D02*
X92026041Y-123545000D01*
X92026041Y-123545000D02*
X92456000Y-123974959D01*
X90055000Y-125488000D02*
X90424000Y-125857000D01*
X91117500Y-124195000D02*
X90428959Y-124195000D01*
X93345000Y-119660690D02*
X93345000Y-118110000D01*
X91227500Y-122895000D02*
X92026041Y-122895000D01*
X90055000Y-118352000D02*
X90424000Y-117983000D01*
X92026041Y-122895000D02*
X93345000Y-124213959D01*
X90055000Y-124568959D02*
X90055000Y-125488000D01*
X96842500Y-124845000D02*
X96842500Y-131132500D01*
X96842500Y-131132500D02*
X99060000Y-133350000D01*
X97531041Y-124195000D02*
X97917000Y-124580959D01*
X90055000Y-119271041D02*
X90055000Y-118352000D01*
X92456000Y-119876520D02*
X92456000Y-115570000D01*
X97536000Y-125592299D02*
X97536000Y-129286000D01*
X93345000Y-124213959D02*
X93345000Y-125730000D01*
X96732500Y-123545000D02*
X95933959Y-123545000D01*
X88900000Y-110490000D02*
X91117500Y-112707500D01*
X96842500Y-119645000D02*
X97531041Y-119645000D01*
X95899310Y-120945000D02*
X94615000Y-119660690D01*
X97905000Y-119271041D02*
X97905000Y-118352000D01*
X97536000Y-114554000D02*
X99060000Y-113030000D01*
X99060000Y-110490000D02*
X96842500Y-112707500D01*
X96842500Y-112707500D02*
X96842500Y-118995000D01*
X96842500Y-120295000D02*
X95933959Y-120295000D01*
X97536000Y-117983000D02*
X97536000Y-114554000D01*
X95504000Y-119865041D02*
X95504000Y-115570000D01*
X97531041Y-119645000D02*
X97905000Y-119271041D01*
X96842500Y-120945000D02*
X95899310Y-120945000D01*
X95933959Y-120295000D02*
X95504000Y-119865041D01*
X97905000Y-118352000D02*
X97536000Y-117983000D01*
M02*
