G04 #@! TF.GenerationSoftware,KiCad,Pcbnew,(6.0.9)*
G04 #@! TF.CreationDate,2023-05-28T18:52:16+02:00*
G04 #@! TF.ProjectId,SOIC-SSOP-DIP adapter,534f4943-2d53-4534-9f50-2d4449502061,rev?*
G04 #@! TF.SameCoordinates,Original*
G04 #@! TF.FileFunction,Legend,Bot*
G04 #@! TF.FilePolarity,Positive*
%FSLAX46Y46*%
G04 Gerber Fmt 4.6, Leading zero omitted, Abs format (unit mm)*
G04 Created by KiCad (PCBNEW (6.0.9)) date 2023-05-28 18:52:16*
%MOMM*%
%LPD*%
G01*
G04 APERTURE LIST*
%ADD10C,0.150000*%
%ADD11R,1.700000X1.700000*%
%ADD12O,1.700000X1.700000*%
G04 APERTURE END LIST*
D10*
X91217714Y-112577619D02*
X91170095Y-112530000D01*
X91074857Y-112482380D01*
X90836761Y-112482380D01*
X90741523Y-112530000D01*
X90693904Y-112577619D01*
X90646285Y-112672857D01*
X90646285Y-112768095D01*
X90693904Y-112910952D01*
X91265333Y-113482380D01*
X90646285Y-113482380D01*
X90439904Y-120102380D02*
X90916095Y-120102380D01*
X90963714Y-120578571D01*
X90916095Y-120530952D01*
X90820857Y-120483333D01*
X90582761Y-120483333D01*
X90487523Y-120530952D01*
X90439904Y-120578571D01*
X90392285Y-120673809D01*
X90392285Y-120911904D01*
X90439904Y-121007142D01*
X90487523Y-121054761D01*
X90582761Y-121102380D01*
X90820857Y-121102380D01*
X90916095Y-121054761D01*
X90963714Y-121007142D01*
X97218476Y-133802380D02*
X97789904Y-133802380D01*
X97504190Y-133802380D02*
X97504190Y-132802380D01*
X97599428Y-132945238D01*
X97694666Y-133040476D01*
X97789904Y-133088095D01*
X96266095Y-133802380D02*
X96837523Y-133802380D01*
X96551809Y-133802380D02*
X96551809Y-132802380D01*
X96647047Y-132945238D01*
X96742285Y-133040476D01*
X96837523Y-133088095D01*
X97472476Y-123642380D02*
X98043904Y-123642380D01*
X97758190Y-123642380D02*
X97758190Y-122642380D01*
X97853428Y-122785238D01*
X97948666Y-122880476D01*
X98043904Y-122928095D01*
X96567714Y-122642380D02*
X97043904Y-122642380D01*
X97091523Y-123118571D01*
X97043904Y-123070952D01*
X96948666Y-123023333D01*
X96710571Y-123023333D01*
X96615333Y-123070952D01*
X96567714Y-123118571D01*
X96520095Y-123213809D01*
X96520095Y-123451904D01*
X96567714Y-123547142D01*
X96615333Y-123594761D01*
X96710571Y-123642380D01*
X96948666Y-123642380D01*
X97043904Y-123594761D01*
X97091523Y-123547142D01*
X91265333Y-115022380D02*
X90646285Y-115022380D01*
X90979619Y-115403333D01*
X90836761Y-115403333D01*
X90741523Y-115450952D01*
X90693904Y-115498571D01*
X90646285Y-115593809D01*
X90646285Y-115831904D01*
X90693904Y-115927142D01*
X90741523Y-115974761D01*
X90836761Y-116022380D01*
X91122476Y-116022380D01*
X91217714Y-115974761D01*
X91265333Y-115927142D01*
X97218476Y-131262380D02*
X97789904Y-131262380D01*
X97504190Y-131262380D02*
X97504190Y-130262380D01*
X97599428Y-130405238D01*
X97694666Y-130500476D01*
X97789904Y-130548095D01*
X96837523Y-130357619D02*
X96789904Y-130310000D01*
X96694666Y-130262380D01*
X96456571Y-130262380D01*
X96361333Y-130310000D01*
X96313714Y-130357619D01*
X96266095Y-130452857D01*
X96266095Y-130548095D01*
X96313714Y-130690952D01*
X96885142Y-131262380D01*
X96266095Y-131262380D01*
X97218476Y-118562380D02*
X97789904Y-118562380D01*
X97504190Y-118562380D02*
X97504190Y-117562380D01*
X97599428Y-117705238D01*
X97694666Y-117800476D01*
X97789904Y-117848095D01*
X96885142Y-117562380D02*
X96218476Y-117562380D01*
X96647047Y-118562380D01*
X97218476Y-113482380D02*
X97789904Y-113482380D01*
X97504190Y-113482380D02*
X97504190Y-112482380D01*
X97599428Y-112625238D01*
X97694666Y-112720476D01*
X97789904Y-112768095D01*
X96742285Y-113482380D02*
X96551809Y-113482380D01*
X96456571Y-113434761D01*
X96408952Y-113387142D01*
X96313714Y-113244285D01*
X96266095Y-113053809D01*
X96266095Y-112672857D01*
X96313714Y-112577619D01*
X96361333Y-112530000D01*
X96456571Y-112482380D01*
X96647047Y-112482380D01*
X96742285Y-112530000D01*
X96789904Y-112577619D01*
X96837523Y-112672857D01*
X96837523Y-112910952D01*
X96789904Y-113006190D01*
X96742285Y-113053809D01*
X96647047Y-113101428D01*
X96456571Y-113101428D01*
X96361333Y-113053809D01*
X96313714Y-113006190D01*
X96266095Y-112910952D01*
X90487523Y-122642380D02*
X90678000Y-122642380D01*
X90773238Y-122690000D01*
X90820857Y-122737619D01*
X90916095Y-122880476D01*
X90963714Y-123070952D01*
X90963714Y-123451904D01*
X90916095Y-123547142D01*
X90868476Y-123594761D01*
X90773238Y-123642380D01*
X90582761Y-123642380D01*
X90487523Y-123594761D01*
X90439904Y-123547142D01*
X90392285Y-123451904D01*
X90392285Y-123213809D01*
X90439904Y-123118571D01*
X90487523Y-123070952D01*
X90582761Y-123023333D01*
X90773238Y-123023333D01*
X90868476Y-123070952D01*
X90916095Y-123118571D01*
X90963714Y-123213809D01*
X90646285Y-110942380D02*
X91217714Y-110942380D01*
X90932000Y-110942380D02*
X90932000Y-109942380D01*
X91027238Y-110085238D01*
X91122476Y-110180476D01*
X91217714Y-110228095D01*
X97472476Y-126182380D02*
X98043904Y-126182380D01*
X97758190Y-126182380D02*
X97758190Y-125182380D01*
X97853428Y-125325238D01*
X97948666Y-125420476D01*
X98043904Y-125468095D01*
X96615333Y-125515714D02*
X96615333Y-126182380D01*
X96853428Y-125134761D02*
X97091523Y-125849047D01*
X96472476Y-125849047D01*
X97218476Y-116022380D02*
X97789904Y-116022380D01*
X97504190Y-116022380D02*
X97504190Y-115022380D01*
X97599428Y-115165238D01*
X97694666Y-115260476D01*
X97789904Y-115308095D01*
X96647047Y-115450952D02*
X96742285Y-115403333D01*
X96789904Y-115355714D01*
X96837523Y-115260476D01*
X96837523Y-115212857D01*
X96789904Y-115117619D01*
X96742285Y-115070000D01*
X96647047Y-115022380D01*
X96456571Y-115022380D01*
X96361333Y-115070000D01*
X96313714Y-115117619D01*
X96266095Y-115212857D01*
X96266095Y-115260476D01*
X96313714Y-115355714D01*
X96361333Y-115403333D01*
X96456571Y-115450952D01*
X96647047Y-115450952D01*
X96742285Y-115498571D01*
X96789904Y-115546190D01*
X96837523Y-115641428D01*
X96837523Y-115831904D01*
X96789904Y-115927142D01*
X96742285Y-115974761D01*
X96647047Y-116022380D01*
X96456571Y-116022380D01*
X96361333Y-115974761D01*
X96313714Y-115927142D01*
X96266095Y-115831904D01*
X96266095Y-115641428D01*
X96313714Y-115546190D01*
X96361333Y-115498571D01*
X96456571Y-115450952D01*
X90773238Y-128150952D02*
X90868476Y-128103333D01*
X90916095Y-128055714D01*
X90963714Y-127960476D01*
X90963714Y-127912857D01*
X90916095Y-127817619D01*
X90868476Y-127770000D01*
X90773238Y-127722380D01*
X90582761Y-127722380D01*
X90487523Y-127770000D01*
X90439904Y-127817619D01*
X90392285Y-127912857D01*
X90392285Y-127960476D01*
X90439904Y-128055714D01*
X90487523Y-128103333D01*
X90582761Y-128150952D01*
X90773238Y-128150952D01*
X90868476Y-128198571D01*
X90916095Y-128246190D01*
X90963714Y-128341428D01*
X90963714Y-128531904D01*
X90916095Y-128627142D01*
X90868476Y-128674761D01*
X90773238Y-128722380D01*
X90582761Y-128722380D01*
X90487523Y-128674761D01*
X90439904Y-128627142D01*
X90392285Y-128531904D01*
X90392285Y-128341428D01*
X90439904Y-128246190D01*
X90487523Y-128198571D01*
X90582761Y-128150952D01*
X97472476Y-128722380D02*
X98043904Y-128722380D01*
X97758190Y-128722380D02*
X97758190Y-127722380D01*
X97853428Y-127865238D01*
X97948666Y-127960476D01*
X98043904Y-128008095D01*
X97139142Y-127722380D02*
X96520095Y-127722380D01*
X96853428Y-128103333D01*
X96710571Y-128103333D01*
X96615333Y-128150952D01*
X96567714Y-128198571D01*
X96520095Y-128293809D01*
X96520095Y-128531904D01*
X96567714Y-128627142D01*
X96615333Y-128674761D01*
X96710571Y-128722380D01*
X96996285Y-128722380D01*
X97091523Y-128674761D01*
X97139142Y-128627142D01*
X90868476Y-133802380D02*
X91439904Y-133802380D01*
X91154190Y-133802380D02*
X91154190Y-132802380D01*
X91249428Y-132945238D01*
X91344666Y-133040476D01*
X91439904Y-133088095D01*
X90249428Y-132802380D02*
X90154190Y-132802380D01*
X90058952Y-132850000D01*
X90011333Y-132897619D01*
X89963714Y-132992857D01*
X89916095Y-133183333D01*
X89916095Y-133421428D01*
X89963714Y-133611904D01*
X90011333Y-133707142D01*
X90058952Y-133754761D01*
X90154190Y-133802380D01*
X90249428Y-133802380D01*
X90344666Y-133754761D01*
X90392285Y-133707142D01*
X90439904Y-133611904D01*
X90487523Y-133421428D01*
X90487523Y-133183333D01*
X90439904Y-132992857D01*
X90392285Y-132897619D01*
X90344666Y-132850000D01*
X90249428Y-132802380D01*
X97472476Y-121102380D02*
X98043904Y-121102380D01*
X97758190Y-121102380D02*
X97758190Y-120102380D01*
X97853428Y-120245238D01*
X97948666Y-120340476D01*
X98043904Y-120388095D01*
X96615333Y-120102380D02*
X96805809Y-120102380D01*
X96901047Y-120150000D01*
X96948666Y-120197619D01*
X97043904Y-120340476D01*
X97091523Y-120530952D01*
X97091523Y-120911904D01*
X97043904Y-121007142D01*
X96996285Y-121054761D01*
X96901047Y-121102380D01*
X96710571Y-121102380D01*
X96615333Y-121054761D01*
X96567714Y-121007142D01*
X96520095Y-120911904D01*
X96520095Y-120673809D01*
X96567714Y-120578571D01*
X96615333Y-120530952D01*
X96710571Y-120483333D01*
X96901047Y-120483333D01*
X96996285Y-120530952D01*
X97043904Y-120578571D01*
X97091523Y-120673809D01*
X97789904Y-110037619D02*
X97742285Y-109990000D01*
X97647047Y-109942380D01*
X97408952Y-109942380D01*
X97313714Y-109990000D01*
X97266095Y-110037619D01*
X97218476Y-110132857D01*
X97218476Y-110228095D01*
X97266095Y-110370952D01*
X97837523Y-110942380D01*
X97218476Y-110942380D01*
X96599428Y-109942380D02*
X96504190Y-109942380D01*
X96408952Y-109990000D01*
X96361333Y-110037619D01*
X96313714Y-110132857D01*
X96266095Y-110323333D01*
X96266095Y-110561428D01*
X96313714Y-110751904D01*
X96361333Y-110847142D01*
X96408952Y-110894761D01*
X96504190Y-110942380D01*
X96599428Y-110942380D01*
X96694666Y-110894761D01*
X96742285Y-110847142D01*
X96789904Y-110751904D01*
X96837523Y-110561428D01*
X96837523Y-110323333D01*
X96789904Y-110132857D01*
X96742285Y-110037619D01*
X96694666Y-109990000D01*
X96599428Y-109942380D01*
X90868476Y-131262380D02*
X90678000Y-131262380D01*
X90582761Y-131214761D01*
X90535142Y-131167142D01*
X90439904Y-131024285D01*
X90392285Y-130833809D01*
X90392285Y-130452857D01*
X90439904Y-130357619D01*
X90487523Y-130310000D01*
X90582761Y-130262380D01*
X90773238Y-130262380D01*
X90868476Y-130310000D01*
X90916095Y-130357619D01*
X90963714Y-130452857D01*
X90963714Y-130690952D01*
X90916095Y-130786190D01*
X90868476Y-130833809D01*
X90773238Y-130881428D01*
X90582761Y-130881428D01*
X90487523Y-130833809D01*
X90439904Y-130786190D01*
X90392285Y-130690952D01*
X90741523Y-117895714D02*
X90741523Y-118562380D01*
X90979619Y-117514761D02*
X91217714Y-118229047D01*
X90598666Y-118229047D01*
X91011333Y-125182380D02*
X90344666Y-125182380D01*
X90773238Y-126182380D01*
%LPC*%
D11*
X99060000Y-133350000D03*
D12*
X99060000Y-130810000D03*
X99060000Y-128270000D03*
X99060000Y-125730000D03*
X99060000Y-123190000D03*
X99060000Y-120650000D03*
X99060000Y-118110000D03*
X99060000Y-115570000D03*
X99060000Y-113030000D03*
X99060000Y-110490000D03*
D11*
X88900000Y-110490000D03*
D12*
X88900000Y-113030000D03*
X88900000Y-115570000D03*
X88900000Y-118110000D03*
X88900000Y-120650000D03*
X88900000Y-123190000D03*
X88900000Y-125730000D03*
X88900000Y-128270000D03*
X88900000Y-130810000D03*
X88900000Y-133350000D03*
M02*
