M48
; DRILL file {KiCad (6.0.9)} date Sun May 28 18:52:21 2023
; FORMAT={-:-/ absolute / metric / decimal}
; #@! TF.CreationDate,2023-05-28T18:52:21+02:00
; #@! TF.GenerationSoftware,Kicad,Pcbnew,(6.0.9)
; #@! TF.FileFunction,Plated,1,2,PTH
FMAT,2
METRIC
; #@! TA.AperFunction,Plated,PTH,ViaDrill
T1C0.500
; #@! TA.AperFunction,Plated,PTH,ComponentDrill
T2C1.000
%
G90
G05
T1
X92.456Y-115.57
X92.456Y-128.27
X93.345Y-118.11
X93.345Y-125.73
X94.615Y-118.11
X94.615Y-125.73
X95.504Y-115.57
X95.504Y-128.27
T2
X88.9Y-110.49
X88.9Y-113.03
X88.9Y-115.57
X88.9Y-118.11
X88.9Y-120.65
X88.9Y-123.19
X88.9Y-125.73
X88.9Y-128.27
X88.9Y-130.81
X88.9Y-133.35
X99.06Y-110.49
X99.06Y-113.03
X99.06Y-115.57
X99.06Y-118.11
X99.06Y-120.65
X99.06Y-123.19
X99.06Y-125.73
X99.06Y-128.27
X99.06Y-130.81
X99.06Y-133.35
T0
M30
