G04 #@! TF.GenerationSoftware,KiCad,Pcbnew,(6.0.9)*
G04 #@! TF.CreationDate,2023-05-28T18:52:16+02:00*
G04 #@! TF.ProjectId,SOIC-SSOP-DIP adapter,534f4943-2d53-4534-9f50-2d4449502061,rev?*
G04 #@! TF.SameCoordinates,Original*
G04 #@! TF.FileFunction,Copper,L2,Bot*
G04 #@! TF.FilePolarity,Positive*
%FSLAX46Y46*%
G04 Gerber Fmt 4.6, Leading zero omitted, Abs format (unit mm)*
G04 Created by KiCad (PCBNEW (6.0.9)) date 2023-05-28 18:52:16*
%MOMM*%
%LPD*%
G01*
G04 APERTURE LIST*
G04 #@! TA.AperFunction,ComponentPad*
%ADD10R,1.700000X1.700000*%
G04 #@! TD*
G04 #@! TA.AperFunction,ComponentPad*
%ADD11O,1.700000X1.700000*%
G04 #@! TD*
G04 #@! TA.AperFunction,ViaPad*
%ADD12C,0.900000*%
G04 #@! TD*
G04 #@! TA.AperFunction,Conductor*
%ADD13C,0.250000*%
G04 #@! TD*
G04 APERTURE END LIST*
D10*
X99060000Y-133350000D03*
D11*
X99060000Y-130810000D03*
X99060000Y-128270000D03*
X99060000Y-125730000D03*
X99060000Y-123190000D03*
X99060000Y-120650000D03*
X99060000Y-118110000D03*
X99060000Y-115570000D03*
X99060000Y-113030000D03*
X99060000Y-110490000D03*
D10*
X88900000Y-110490000D03*
D11*
X88900000Y-113030000D03*
X88900000Y-115570000D03*
X88900000Y-118110000D03*
X88900000Y-120650000D03*
X88900000Y-123190000D03*
X88900000Y-125730000D03*
X88900000Y-128270000D03*
X88900000Y-130810000D03*
X88900000Y-133350000D03*
D12*
X93345000Y-118110000D03*
X93345000Y-125730000D03*
X94615000Y-125730000D03*
X95504000Y-115570000D03*
X95504000Y-128270000D03*
X94615000Y-118110000D03*
X92456000Y-115570000D03*
X92456000Y-128270000D03*
D13*
X95504000Y-128270000D02*
X99060000Y-128270000D01*
X94615000Y-125730000D02*
X99060000Y-125730000D01*
X88900000Y-115570000D02*
X92456000Y-115570000D01*
X88900000Y-118110000D02*
X93345000Y-118110000D01*
X92456000Y-128270000D02*
X88900000Y-128270000D01*
X93345000Y-125730000D02*
X88900000Y-125730000D01*
X99060000Y-115570000D02*
X95504000Y-115570000D01*
X99060000Y-118110000D02*
X94615000Y-118110000D01*
M02*
