G04 #@! TF.GenerationSoftware,KiCad,Pcbnew,(6.0.9)*
G04 #@! TF.CreationDate,2023-05-28T18:48:41+02:00*
G04 #@! TF.ProjectId,SOIC-SSOP-DIP adapter,534f4943-2d53-4534-9f50-2d4449502061,rev?*
G04 #@! TF.SameCoordinates,Original*
G04 #@! TF.FileFunction,Legend,Top*
G04 #@! TF.FilePolarity,Positive*
%FSLAX46Y46*%
G04 Gerber Fmt 4.6, Leading zero omitted, Abs format (unit mm)*
G04 Created by KiCad (PCBNEW (6.0.9)) date 2023-05-28 18:48:41*
%MOMM*%
%LPD*%
G01*
G04 APERTURE LIST*
G04 Aperture macros list*
%AMRoundRect*
0 Rectangle with rounded corners*
0 $1 Rounding radius*
0 $2 $3 $4 $5 $6 $7 $8 $9 X,Y pos of 4 corners*
0 Add a 4 corners polygon primitive as box body*
4,1,4,$2,$3,$4,$5,$6,$7,$8,$9,$2,$3,0*
0 Add four circle primitives for the rounded corners*
1,1,$1+$1,$2,$3*
1,1,$1+$1,$4,$5*
1,1,$1+$1,$6,$7*
1,1,$1+$1,$8,$9*
0 Add four rect primitives between the rounded corners*
20,1,$1+$1,$2,$3,$4,$5,0*
20,1,$1+$1,$4,$5,$6,$7,0*
20,1,$1+$1,$6,$7,$8,$9,0*
20,1,$1+$1,$8,$9,$2,$3,0*%
G04 Aperture macros list end*
%ADD10C,0.294000*%
%ADD11C,0.329000*%
%ADD12C,0.150000*%
%ADD13C,0.120000*%
%ADD14R,1.700000X1.700000*%
%ADD15O,1.700000X1.700000*%
%ADD16RoundRect,0.150000X-0.150000X1.322500X-0.150000X-1.322500X0.150000X-1.322500X0.150000X1.322500X0*%
%ADD17RoundRect,0.138500X-0.138500X1.334000X-0.138500X-1.334000X0.138500X-1.334000X0.138500X1.334000X0*%
%ADD18R,3.810000X2.410000*%
G04 APERTURE END LIST*
D10*
X50312000Y-80137000D02*
G75*
G03*
X50312000Y-80137000I-147000J0D01*
G01*
D11*
X51980500Y-88900000D02*
G75*
G03*
X51980500Y-88900000I-164500J0D01*
G01*
D12*
X46283000Y-90955761D02*
X46383000Y-91003380D01*
X46549666Y-91003380D01*
X46616333Y-90955761D01*
X46649666Y-90908142D01*
X46683000Y-90812904D01*
X46683000Y-90717666D01*
X46649666Y-90622428D01*
X46616333Y-90574809D01*
X46549666Y-90527190D01*
X46416333Y-90479571D01*
X46349666Y-90431952D01*
X46316333Y-90384333D01*
X46283000Y-90289095D01*
X46283000Y-90193857D01*
X46316333Y-90098619D01*
X46349666Y-90051000D01*
X46416333Y-90003380D01*
X46583000Y-90003380D01*
X46683000Y-90051000D01*
X47116333Y-90003380D02*
X47249666Y-90003380D01*
X47316333Y-90051000D01*
X47383000Y-90146238D01*
X47416333Y-90336714D01*
X47416333Y-90670047D01*
X47383000Y-90860523D01*
X47316333Y-90955761D01*
X47249666Y-91003380D01*
X47116333Y-91003380D01*
X47049666Y-90955761D01*
X46983000Y-90860523D01*
X46949666Y-90670047D01*
X46949666Y-90336714D01*
X46983000Y-90146238D01*
X47049666Y-90051000D01*
X47116333Y-90003380D01*
X47716333Y-91003380D02*
X47716333Y-90003380D01*
X48449666Y-90908142D02*
X48416333Y-90955761D01*
X48316333Y-91003380D01*
X48249666Y-91003380D01*
X48149666Y-90955761D01*
X48083000Y-90860523D01*
X48049666Y-90765285D01*
X48016333Y-90574809D01*
X48016333Y-90431952D01*
X48049666Y-90241476D01*
X48083000Y-90146238D01*
X48149666Y-90051000D01*
X48249666Y-90003380D01*
X48316333Y-90003380D01*
X48416333Y-90051000D01*
X48449666Y-90098619D01*
X48749666Y-90622428D02*
X49283000Y-90622428D01*
X49716333Y-90431952D02*
X49649666Y-90384333D01*
X49616333Y-90336714D01*
X49583000Y-90241476D01*
X49583000Y-90193857D01*
X49616333Y-90098619D01*
X49649666Y-90051000D01*
X49716333Y-90003380D01*
X49849666Y-90003380D01*
X49916333Y-90051000D01*
X49949666Y-90098619D01*
X49983000Y-90193857D01*
X49983000Y-90241476D01*
X49949666Y-90336714D01*
X49916333Y-90384333D01*
X49849666Y-90431952D01*
X49716333Y-90431952D01*
X49649666Y-90479571D01*
X49616333Y-90527190D01*
X49583000Y-90622428D01*
X49583000Y-90812904D01*
X49616333Y-90908142D01*
X49649666Y-90955761D01*
X49716333Y-91003380D01*
X49849666Y-91003380D01*
X49916333Y-90955761D01*
X49949666Y-90908142D01*
X49983000Y-90812904D01*
X49983000Y-90622428D01*
X49949666Y-90527190D01*
X49916333Y-90479571D01*
X49849666Y-90431952D01*
D13*
X41850000Y-82550000D02*
X44510000Y-82550000D01*
X44510000Y-82550000D02*
X44510000Y-90230000D01*
X41850000Y-81280000D02*
X41850000Y-79950000D01*
X41850000Y-79950000D02*
X43180000Y-79950000D01*
X41850000Y-82550000D02*
X41850000Y-90230000D01*
X41850000Y-90230000D02*
X44510000Y-90230000D01*
X45700000Y-85080000D02*
X45700000Y-83130000D01*
X50820000Y-85080000D02*
X50820000Y-87030000D01*
X50820000Y-85080000D02*
X50820000Y-80762000D01*
X45700000Y-85080000D02*
X45700000Y-87030000D01*
X52010000Y-87630000D02*
X52010000Y-79950000D01*
X54670000Y-87630000D02*
X52010000Y-87630000D01*
X54670000Y-79950000D02*
X52010000Y-79950000D01*
X54670000Y-87630000D02*
X54670000Y-79950000D01*
X54670000Y-90230000D02*
X53340000Y-90230000D01*
X54670000Y-88900000D02*
X54670000Y-90230000D01*
%LPC*%
D14*
X43180000Y-81280000D03*
D15*
X43180000Y-83820000D03*
X43180000Y-86360000D03*
X43180000Y-88900000D03*
D16*
X50165000Y-82107500D03*
X48895000Y-82107500D03*
D17*
X47602000Y-82107500D03*
D16*
X46355000Y-82107500D03*
X46355000Y-88052500D03*
X47625000Y-88052500D03*
X48895000Y-88052500D03*
X50165000Y-88052500D03*
D18*
X48260000Y-85080000D03*
D14*
X53340000Y-88900000D03*
D15*
X53340000Y-86360000D03*
X53340000Y-83820000D03*
X53340000Y-81280000D03*
M02*
