G04 #@! TF.GenerationSoftware,KiCad,Pcbnew,(6.0.9)*
G04 #@! TF.CreationDate,2023-05-28T18:48:41+02:00*
G04 #@! TF.ProjectId,SOIC-SSOP-DIP adapter,534f4943-2d53-4534-9f50-2d4449502061,rev?*
G04 #@! TF.SameCoordinates,Original*
G04 #@! TF.FileFunction,Legend,Bot*
G04 #@! TF.FilePolarity,Positive*
%FSLAX46Y46*%
G04 Gerber Fmt 4.6, Leading zero omitted, Abs format (unit mm)*
G04 Created by KiCad (PCBNEW (6.0.9)) date 2023-05-28 18:48:41*
%MOMM*%
%LPD*%
G01*
G04 APERTURE LIST*
%ADD10C,0.150000*%
%ADD11C,0.010000*%
%ADD12R,1.700000X1.700000*%
%ADD13O,1.700000X1.700000*%
G04 APERTURE END LIST*
D10*
X51847714Y-85907619D02*
X51800095Y-85860000D01*
X51704857Y-85812380D01*
X51466761Y-85812380D01*
X51371523Y-85860000D01*
X51323904Y-85907619D01*
X51276285Y-86002857D01*
X51276285Y-86098095D01*
X51323904Y-86240952D01*
X51895333Y-86812380D01*
X51276285Y-86812380D01*
X45053238Y-88780952D02*
X45148476Y-88733333D01*
X45196095Y-88685714D01*
X45243714Y-88590476D01*
X45243714Y-88542857D01*
X45196095Y-88447619D01*
X45148476Y-88400000D01*
X45053238Y-88352380D01*
X44862761Y-88352380D01*
X44767523Y-88400000D01*
X44719904Y-88447619D01*
X44672285Y-88542857D01*
X44672285Y-88590476D01*
X44719904Y-88685714D01*
X44767523Y-88733333D01*
X44862761Y-88780952D01*
X45053238Y-88780952D01*
X45148476Y-88828571D01*
X45196095Y-88876190D01*
X45243714Y-88971428D01*
X45243714Y-89161904D01*
X45196095Y-89257142D01*
X45148476Y-89304761D01*
X45053238Y-89352380D01*
X44862761Y-89352380D01*
X44767523Y-89304761D01*
X44719904Y-89257142D01*
X44672285Y-89161904D01*
X44672285Y-88971428D01*
X44719904Y-88876190D01*
X44767523Y-88828571D01*
X44862761Y-88780952D01*
X44767523Y-83272380D02*
X44958000Y-83272380D01*
X45053238Y-83320000D01*
X45100857Y-83367619D01*
X45196095Y-83510476D01*
X45243714Y-83700952D01*
X45243714Y-84081904D01*
X45196095Y-84177142D01*
X45148476Y-84224761D01*
X45053238Y-84272380D01*
X44862761Y-84272380D01*
X44767523Y-84224761D01*
X44719904Y-84177142D01*
X44672285Y-84081904D01*
X44672285Y-83843809D01*
X44719904Y-83748571D01*
X44767523Y-83700952D01*
X44862761Y-83653333D01*
X45053238Y-83653333D01*
X45148476Y-83700952D01*
X45196095Y-83748571D01*
X45243714Y-83843809D01*
X51371523Y-81065714D02*
X51371523Y-81732380D01*
X51609619Y-80684761D02*
X51847714Y-81399047D01*
X51228666Y-81399047D01*
X44719904Y-80732380D02*
X45196095Y-80732380D01*
X45243714Y-81208571D01*
X45196095Y-81160952D01*
X45100857Y-81113333D01*
X44862761Y-81113333D01*
X44767523Y-81160952D01*
X44719904Y-81208571D01*
X44672285Y-81303809D01*
X44672285Y-81541904D01*
X44719904Y-81637142D01*
X44767523Y-81684761D01*
X44862761Y-81732380D01*
X45100857Y-81732380D01*
X45196095Y-81684761D01*
X45243714Y-81637142D01*
X45291333Y-85812380D02*
X44624666Y-85812380D01*
X45053238Y-86812380D01*
X51276285Y-89352380D02*
X51847714Y-89352380D01*
X51562000Y-89352380D02*
X51562000Y-88352380D01*
X51657238Y-88495238D01*
X51752476Y-88590476D01*
X51847714Y-88638095D01*
X51895333Y-83272380D02*
X51276285Y-83272380D01*
X51609619Y-83653333D01*
X51466761Y-83653333D01*
X51371523Y-83700952D01*
X51323904Y-83748571D01*
X51276285Y-83843809D01*
X51276285Y-84081904D01*
X51323904Y-84177142D01*
X51371523Y-84224761D01*
X51466761Y-84272380D01*
X51752476Y-84272380D01*
X51847714Y-84224761D01*
X51895333Y-84177142D01*
%LPC*%
D11*
X45720000Y-83058000D02*
X50927000Y-83058000D01*
X50927000Y-83058000D02*
X50927000Y-87122000D01*
X50927000Y-87122000D02*
X45720000Y-87122000D01*
X45720000Y-87122000D02*
X45720000Y-83058000D01*
G36*
X45720000Y-83058000D02*
G01*
X50927000Y-83058000D01*
X50927000Y-87122000D01*
X45720000Y-87122000D01*
X45720000Y-83058000D01*
G37*
D12*
X43180000Y-81280000D03*
D13*
X43180000Y-83820000D03*
X43180000Y-86360000D03*
X43180000Y-88900000D03*
D12*
X53340000Y-88900000D03*
D13*
X53340000Y-86360000D03*
X53340000Y-83820000D03*
X53340000Y-81280000D03*
M02*
