G04 #@! TF.GenerationSoftware,KiCad,Pcbnew,(6.0.9)*
G04 #@! TF.CreationDate,2023-05-28T18:50:32+02:00*
G04 #@! TF.ProjectId,SOIC-SSOP-DIP adapter,534f4943-2d53-4534-9f50-2d4449502061,rev?*
G04 #@! TF.SameCoordinates,Original*
G04 #@! TF.FileFunction,Legend,Top*
G04 #@! TF.FilePolarity,Positive*
%FSLAX46Y46*%
G04 Gerber Fmt 4.6, Leading zero omitted, Abs format (unit mm)*
G04 Created by KiCad (PCBNEW (6.0.9)) date 2023-05-28 18:50:32*
%MOMM*%
%LPD*%
G01*
G04 APERTURE LIST*
G04 Aperture macros list*
%AMRoundRect*
0 Rectangle with rounded corners*
0 $1 Rounding radius*
0 $2 $3 $4 $5 $6 $7 $8 $9 X,Y pos of 4 corners*
0 Add a 4 corners polygon primitive as box body*
4,1,4,$2,$3,$4,$5,$6,$7,$8,$9,$2,$3,0*
0 Add four circle primitives for the rounded corners*
1,1,$1+$1,$2,$3*
1,1,$1+$1,$4,$5*
1,1,$1+$1,$6,$7*
1,1,$1+$1,$8,$9*
0 Add four rect primitives between the rounded corners*
20,1,$1+$1,$2,$3,$4,$5,0*
20,1,$1+$1,$4,$5,$6,$7,0*
20,1,$1+$1,$6,$7,$8,$9,0*
20,1,$1+$1,$8,$9,$2,$3,0*%
G04 Aperture macros list end*
%ADD10C,0.150000*%
%ADD11C,0.329000*%
%ADD12C,0.120000*%
%ADD13R,1.700000X1.700000*%
%ADD14O,1.700000X1.700000*%
%ADD15RoundRect,0.150000X-0.825000X-0.150000X0.825000X-0.150000X0.825000X0.150000X-0.825000X0.150000X0*%
%ADD16RoundRect,0.250000X-0.412500X-0.650000X0.412500X-0.650000X0.412500X0.650000X-0.412500X0.650000X0*%
G04 APERTURE END LIST*
D10*
X91796666Y-96965761D02*
X91896666Y-97013380D01*
X92063333Y-97013380D01*
X92130000Y-96965761D01*
X92163333Y-96918142D01*
X92196666Y-96822904D01*
X92196666Y-96727666D01*
X92163333Y-96632428D01*
X92130000Y-96584809D01*
X92063333Y-96537190D01*
X91930000Y-96489571D01*
X91863333Y-96441952D01*
X91830000Y-96394333D01*
X91796666Y-96299095D01*
X91796666Y-96203857D01*
X91830000Y-96108619D01*
X91863333Y-96061000D01*
X91930000Y-96013380D01*
X92096666Y-96013380D01*
X92196666Y-96061000D01*
X92630000Y-96013380D02*
X92763333Y-96013380D01*
X92830000Y-96061000D01*
X92896666Y-96156238D01*
X92930000Y-96346714D01*
X92930000Y-96680047D01*
X92896666Y-96870523D01*
X92830000Y-96965761D01*
X92763333Y-97013380D01*
X92630000Y-97013380D01*
X92563333Y-96965761D01*
X92496666Y-96870523D01*
X92463333Y-96680047D01*
X92463333Y-96346714D01*
X92496666Y-96156238D01*
X92563333Y-96061000D01*
X92630000Y-96013380D01*
X93230000Y-97013380D02*
X93230000Y-96013380D01*
X93963333Y-96918142D02*
X93930000Y-96965761D01*
X93830000Y-97013380D01*
X93763333Y-97013380D01*
X93663333Y-96965761D01*
X93596666Y-96870523D01*
X93563333Y-96775285D01*
X93530000Y-96584809D01*
X93530000Y-96441952D01*
X93563333Y-96251476D01*
X93596666Y-96156238D01*
X93663333Y-96061000D01*
X93763333Y-96013380D01*
X93830000Y-96013380D01*
X93930000Y-96061000D01*
X93963333Y-96108619D01*
X94263333Y-96632428D02*
X94796666Y-96632428D01*
X95496666Y-97013380D02*
X95096666Y-97013380D01*
X95296666Y-97013380D02*
X95296666Y-96013380D01*
X95230000Y-96156238D01*
X95163333Y-96251476D01*
X95096666Y-96299095D01*
X96096666Y-96013380D02*
X95963333Y-96013380D01*
X95896666Y-96061000D01*
X95863333Y-96108619D01*
X95796666Y-96251476D01*
X95763333Y-96441952D01*
X95763333Y-96822904D01*
X95796666Y-96918142D01*
X95830000Y-96965761D01*
X95896666Y-97013380D01*
X96030000Y-97013380D01*
X96096666Y-96965761D01*
X96130000Y-96918142D01*
X96163333Y-96822904D01*
X96163333Y-96584809D01*
X96130000Y-96489571D01*
X96096666Y-96441952D01*
X96030000Y-96394333D01*
X95896666Y-96394333D01*
X95830000Y-96441952D01*
X95796666Y-96489571D01*
X95763333Y-96584809D01*
X91196666Y-97623380D02*
X91630000Y-97623380D01*
X91396666Y-98004333D01*
X91496666Y-98004333D01*
X91563333Y-98051952D01*
X91596666Y-98099571D01*
X91630000Y-98194809D01*
X91630000Y-98432904D01*
X91596666Y-98528142D01*
X91563333Y-98575761D01*
X91496666Y-98623380D01*
X91296666Y-98623380D01*
X91230000Y-98575761D01*
X91196666Y-98528142D01*
X91930000Y-98528142D02*
X91963333Y-98575761D01*
X91930000Y-98623380D01*
X91896666Y-98575761D01*
X91930000Y-98528142D01*
X91930000Y-98623380D01*
X92296666Y-98623380D02*
X92430000Y-98623380D01*
X92496666Y-98575761D01*
X92530000Y-98528142D01*
X92596666Y-98385285D01*
X92630000Y-98194809D01*
X92630000Y-97813857D01*
X92596666Y-97718619D01*
X92563333Y-97671000D01*
X92496666Y-97623380D01*
X92363333Y-97623380D01*
X92296666Y-97671000D01*
X92263333Y-97718619D01*
X92230000Y-97813857D01*
X92230000Y-98051952D01*
X92263333Y-98147190D01*
X92296666Y-98194809D01*
X92363333Y-98242428D01*
X92496666Y-98242428D01*
X92563333Y-98194809D01*
X92596666Y-98147190D01*
X92630000Y-98051952D01*
X92863333Y-98623380D02*
X93230000Y-97956714D01*
X92863333Y-97956714D02*
X93230000Y-98623380D01*
X93530000Y-98623380D02*
X93663333Y-98623380D01*
X93730000Y-98575761D01*
X93763333Y-98528142D01*
X93830000Y-98385285D01*
X93863333Y-98194809D01*
X93863333Y-97813857D01*
X93830000Y-97718619D01*
X93796666Y-97671000D01*
X93730000Y-97623380D01*
X93596666Y-97623380D01*
X93530000Y-97671000D01*
X93496666Y-97718619D01*
X93463333Y-97813857D01*
X93463333Y-98051952D01*
X93496666Y-98147190D01*
X93530000Y-98194809D01*
X93596666Y-98242428D01*
X93730000Y-98242428D01*
X93796666Y-98194809D01*
X93830000Y-98147190D01*
X93863333Y-98051952D01*
X94163333Y-98528142D02*
X94196666Y-98575761D01*
X94163333Y-98623380D01*
X94130000Y-98575761D01*
X94163333Y-98528142D01*
X94163333Y-98623380D01*
X94530000Y-98623380D02*
X94663333Y-98623380D01*
X94730000Y-98575761D01*
X94763333Y-98528142D01*
X94830000Y-98385285D01*
X94863333Y-98194809D01*
X94863333Y-97813857D01*
X94830000Y-97718619D01*
X94796666Y-97671000D01*
X94730000Y-97623380D01*
X94596666Y-97623380D01*
X94530000Y-97671000D01*
X94496666Y-97718619D01*
X94463333Y-97813857D01*
X94463333Y-98051952D01*
X94496666Y-98147190D01*
X94530000Y-98194809D01*
X94596666Y-98242428D01*
X94730000Y-98242428D01*
X94796666Y-98194809D01*
X94830000Y-98147190D01*
X94863333Y-98051952D01*
X95163333Y-98623380D02*
X95163333Y-97956714D01*
X95163333Y-98051952D02*
X95196666Y-98004333D01*
X95263333Y-97956714D01*
X95363333Y-97956714D01*
X95430000Y-98004333D01*
X95463333Y-98099571D01*
X95463333Y-98623380D01*
X95463333Y-98099571D02*
X95496666Y-98004333D01*
X95563333Y-97956714D01*
X95663333Y-97956714D01*
X95730000Y-98004333D01*
X95763333Y-98099571D01*
X95763333Y-98623380D01*
X96096666Y-98623380D02*
X96096666Y-97956714D01*
X96096666Y-98051952D02*
X96130000Y-98004333D01*
X96196666Y-97956714D01*
X96296666Y-97956714D01*
X96363333Y-98004333D01*
X96396666Y-98099571D01*
X96396666Y-98623380D01*
X96396666Y-98099571D02*
X96430000Y-98004333D01*
X96496666Y-97956714D01*
X96596666Y-97956714D01*
X96663333Y-98004333D01*
X96696666Y-98099571D01*
X96696666Y-98623380D01*
X91696666Y-100233380D02*
X91696666Y-99233380D01*
X91963333Y-99233380D01*
X92030000Y-99281000D01*
X92063333Y-99328619D01*
X92096666Y-99423857D01*
X92096666Y-99566714D01*
X92063333Y-99661952D01*
X92030000Y-99709571D01*
X91963333Y-99757190D01*
X91696666Y-99757190D01*
X92763333Y-100233380D02*
X92363333Y-100233380D01*
X92563333Y-100233380D02*
X92563333Y-99233380D01*
X92496666Y-99376238D01*
X92430000Y-99471476D01*
X92363333Y-99519095D01*
X93063333Y-100138142D02*
X93096666Y-100185761D01*
X93063333Y-100233380D01*
X93030000Y-100185761D01*
X93063333Y-100138142D01*
X93063333Y-100233380D01*
X93363333Y-99328619D02*
X93396666Y-99281000D01*
X93463333Y-99233380D01*
X93630000Y-99233380D01*
X93696666Y-99281000D01*
X93730000Y-99328619D01*
X93763333Y-99423857D01*
X93763333Y-99519095D01*
X93730000Y-99661952D01*
X93330000Y-100233380D01*
X93763333Y-100233380D01*
X93996666Y-99233380D02*
X94463333Y-99233380D01*
X94163333Y-100233380D01*
X94730000Y-100233380D02*
X94730000Y-99566714D01*
X94730000Y-99661952D02*
X94763333Y-99614333D01*
X94830000Y-99566714D01*
X94930000Y-99566714D01*
X94996666Y-99614333D01*
X95030000Y-99709571D01*
X95030000Y-100233380D01*
X95030000Y-99709571D02*
X95063333Y-99614333D01*
X95130000Y-99566714D01*
X95230000Y-99566714D01*
X95296666Y-99614333D01*
X95330000Y-99709571D01*
X95330000Y-100233380D01*
X95663333Y-100233380D02*
X95663333Y-99566714D01*
X95663333Y-99661952D02*
X95696666Y-99614333D01*
X95763333Y-99566714D01*
X95863333Y-99566714D01*
X95930000Y-99614333D01*
X95963333Y-99709571D01*
X95963333Y-100233380D01*
X95963333Y-99709571D02*
X95996666Y-99614333D01*
X96063333Y-99566714D01*
X96163333Y-99566714D01*
X96230000Y-99614333D01*
X96263333Y-99709571D01*
X96263333Y-100233380D01*
D11*
X90588500Y-81280000D02*
G75*
G03*
X90588500Y-81280000I-164500J0D01*
G01*
D12*
X87570000Y-82550000D02*
X90230000Y-82550000D01*
X87570000Y-79950000D02*
X88900000Y-79950000D01*
X87570000Y-81280000D02*
X87570000Y-79950000D01*
X87570000Y-82550000D02*
X87570000Y-100390000D01*
X87570000Y-100390000D02*
X90230000Y-100390000D01*
X90230000Y-82550000D02*
X90230000Y-100390000D01*
X93980000Y-85095000D02*
X90530000Y-85095000D01*
X93980000Y-95215000D02*
X92030000Y-95215000D01*
X93980000Y-85095000D02*
X95930000Y-85095000D01*
X93980000Y-95215000D02*
X95930000Y-95215000D01*
X100390000Y-97775000D02*
X97730000Y-97775000D01*
X100390000Y-79935000D02*
X97730000Y-79935000D01*
X100390000Y-97775000D02*
X100390000Y-79935000D01*
X100390000Y-99045000D02*
X100390000Y-100375000D01*
X100390000Y-100375000D02*
X99060000Y-100375000D01*
X97730000Y-97775000D02*
X97730000Y-79935000D01*
X93268748Y-82656000D02*
X94691252Y-82656000D01*
X93268748Y-84476000D02*
X94691252Y-84476000D01*
%LPC*%
D13*
X88900000Y-81280000D03*
D14*
X88900000Y-83820000D03*
X88900000Y-86360000D03*
X88900000Y-88900000D03*
X88900000Y-91440000D03*
X88900000Y-93980000D03*
X88900000Y-96520000D03*
X88900000Y-99060000D03*
D15*
X91505000Y-85710000D03*
X91505000Y-86980000D03*
X91505000Y-88250000D03*
X91505000Y-89520000D03*
X91505000Y-90790000D03*
X91505000Y-92060000D03*
X91505000Y-93330000D03*
X91505000Y-94600000D03*
X96455000Y-94600000D03*
X96455000Y-93330000D03*
X96455000Y-92060000D03*
X96455000Y-90790000D03*
X96455000Y-89520000D03*
X96455000Y-88250000D03*
X96455000Y-86980000D03*
X96455000Y-85710000D03*
D13*
X99060000Y-99045000D03*
D14*
X99060000Y-96505000D03*
X99060000Y-93965000D03*
X99060000Y-91425000D03*
X99060000Y-88885000D03*
X99060000Y-86345000D03*
X99060000Y-83805000D03*
X99060000Y-81265000D03*
D16*
X92417500Y-83566000D03*
X95542500Y-83566000D03*
M02*
